# Blender 5.0.1
# www.blender.org
o Bishop.001
v -0.094861 0.286384 0.151294
v 0.090755 0.203388 -0.051285
v 0.140910 -0.569484 -0.241259
v 0.276353 -0.569746 0.007269
v 0.123943 -0.568008 0.252532
v -0.139330 -0.569073 0.235307
v 0.013419 0.474665 -0.116301
v -0.089454 0.478241 -0.079242
v -0.113645 -0.568759 -0.248111
v 0.297346 -0.620735 -0.180870
v 0.337878 -0.601376 0.063758
v 0.204562 -0.687512 0.256830
v -0.144675 -0.600438 0.311950
v -0.120420 -0.621400 -0.322743
v 0.224406 -0.414571 -0.029091
v -0.211541 -0.414123 -0.080828
v -0.135376 -0.414282 -0.180316
v 0.258127 -0.352358 -0.000428
v 0.141809 -0.349074 0.215672
v -0.068307 -0.350826 0.245494
v -0.207306 -0.350532 0.143881
v -0.255147 -0.351630 -0.025825
v -0.178373 -0.348443 -0.177439
v 0.048100 -0.261482 -0.167157
v 0.162689 -0.263474 -0.047019
v 0.141510 -0.264594 0.097987
v 0.009463 -0.265813 0.170448
v -0.091262 -0.264214 0.139680
v -0.124991 -0.263802 -0.117483
v -0.102533 0.011097 0.003978
v -0.069201 0.010014 -0.073134
v 0.099067 0.049722 -0.176563
v 0.150489 0.048810 0.142509
v -0.038947 0.076846 -0.209291
v 0.096134 0.140175 -0.062738
v 0.070769 0.082683 0.197141
v -0.056427 0.093873 0.187321
v -0.204454 0.065418 0.062786
v 0.098410 -0.592777 -0.332281
v 0.201524 -0.590955 -0.271166
v 0.246964 -0.596749 0.227132
v 0.055402 -0.612350 0.336434
v -0.278525 -0.626443 0.199936
v -0.341543 -0.598085 0.011543
v -0.276134 -0.601959 -0.203764
v 0.042850 0.153754 -0.108822
v -0.046227 0.157209 0.108628
v -0.102955 0.200267 -0.012072
v -0.097312 0.207094 0.044872
v -0.110442 0.230001 -0.052703
v 0.032622 0.227793 0.115583
v -0.049451 0.202518 -0.093447
v 0.000489 0.283075 -0.179256
v -0.152750 0.359805 0.107331
v 0.170798 0.326628 0.080987
v 0.177942 0.283218 -0.008532
v 0.152006 0.333751 -0.108512
v -0.071147 0.408001 -0.162018
v -0.173540 0.426201 -0.042654
v -0.170680 0.417449 -0.021233
v 0.143420 0.482460 0.040688
v -0.031511 0.433161 0.170365
v 0.151345 0.461014 -0.043197
v 0.000846 0.494883 -0.147959
v -0.114855 0.491309 -0.092790
v -0.132849 0.502008 0.056067
v 0.092906 0.406398 0.156430
v 0.067633 0.617906 0.015008
v 0.032708 0.618939 -0.062062
v -0.093906 0.664297 0.037699
v -0.043459 0.722530 0.045699
v 0.095773 0.668723 0.016382
v 0.019716 0.682109 0.095043
v 0.214322 -0.692892 -0.231683
v 0.313990 -0.691311 0.035080
v -0.304002 -0.682571 0.116419
v -0.292458 -0.691384 -0.143342
v -0.050794 -0.685265 -0.317351
v 0.153689 -0.348893 -0.206310
v -0.042542 -0.351954 -0.251176
v -0.066330 0.615397 0.033920
v 0.146100 -0.516167 -0.309525
v 0.305617 -0.515252 -0.139931
v 0.336314 -0.517054 0.039015
v 0.259052 -0.516803 0.216969
v 0.053320 -0.518547 0.337818
v -0.173695 -0.515449 0.288023
v -0.312050 -0.516857 -0.127635
v -0.143754 -0.517155 -0.312257
v -0.257927 -0.568585 0.080938
v -0.063122 -0.691874 0.313929
v 0.031380 -0.414428 0.224247
v 0.017975 0.494190 -0.100634
v -0.165754 -0.260787 0.041865
v 0.006562 0.011907 -0.099982
v -0.032864 0.011462 0.099948
v -0.116795 0.049741 0.173380
v -0.179149 0.057795 -0.114139
v 0.215129 0.062768 0.001327
v -0.029213 0.138975 -0.113410
v -0.098293 0.137456 0.061757
v 0.028988 0.137942 0.110116
v 0.092174 0.154677 0.074113
v 0.165147 0.428968 -0.037079
v -0.120508 0.304659 -0.139455
v 0.048714 0.270745 0.163621
v -0.159113 0.448750 -0.023541
v 0.071729 0.366171 -0.172873
v 0.015204 0.618256 0.066518
v -0.053905 0.614564 -0.048809
v -0.064970 0.670834 -0.071055
v 0.046177 0.732451 0.026325
v -0.056554 0.724625 -0.022725
v 0.029854 0.725854 -0.059934
v -0.000694 0.745405 0.000925
v 0.090040 0.012288 -0.051272
v 0.082046 0.011311 0.061419
v -0.008847 0.198644 0.104421
v 0.018589 0.197530 -0.102461
v -0.256511 -0.569850 -0.090738
v -0.041356 0.224289 0.111126
v 0.104163 0.201889 0.005006
v 0.084212 0.206799 0.062493
v 0.039358 0.228356 -0.113471
v 0.113060 0.136207 0.016465
v -0.106648 0.139432 -0.048284
v -0.176060 0.283560 0.006854
v 0.133236 0.457716 -0.088529
v 0.026645 0.513623 -0.131327
v 0.065924 0.664405 -0.068304
v 0.085351 0.624635 -0.010834
v 0.015435 0.628327 0.087933
v 0.013317 0.634600 -0.090952
v 0.159167 0.086338 -0.136095
v -0.022879 -0.413773 -0.225513
v -0.216995 -0.413512 0.071045
v -0.107521 -0.412895 0.201069
v 0.185788 -0.414560 0.138693
v 0.143479 -0.410390 -0.181748
v -0.322607 -0.518903 0.114953
vn 0.0681 -0.7469 -0.6615
vn -0.4260 -0.7208 0.5468
vn -0.7284 -0.5413 0.4201
vn 0.7300 -0.6113 0.3056
vn -0.3464 -0.5749 -0.7413
vn 0.0148 -0.7757 -0.6310
vn -0.6089 -0.7933 0.0008
vn -0.4514 -0.8233 0.3442
vn -0.0281 -0.8746 0.4840
vn 0.4320 -0.8704 -0.2363
vn 0.5313 -0.6868 -0.4960
vn 0.2470 -0.5295 -0.8116
vn 0.7198 -0.6415 -0.2651
vn 0.1868 -0.5152 0.8365
vn -0.5024 -0.6389 0.5826
vn -0.9015 -0.4321 -0.0254
vn 0.7408 0.5465 0.3905
vn -0.1658 -0.8337 -0.5268
vn -0.5577 -0.7976 -0.2299
vn -0.2618 -0.9455 0.1936
vn 0.1120 -0.9346 0.3377
vn -0.0536 -0.8681 -0.4934
vn 0.1628 -0.9485 -0.2717
vn 0.0657 -0.8023 0.5933
vn 0.6540 -0.6549 -0.3787
vn 0.2892 0.4557 -0.8418
vn -0.6874 0.7147 -0.1291
vn 0.3862 -0.6723 -0.6316
vn -0.1263 -0.0913 0.9878
vn -0.9493 -0.0340 0.3124
vn -0.2142 -0.7920 0.5717
vn 0.2051 -0.8488 -0.4873
vn -0.9970 0.0153 0.0760
vn 0.0050 0.0965 0.9953
vn 0.3783 0.2561 0.8895
vn 0.9421 0.1773 0.2845
vn 0.9743 0.0965 -0.2034
vn 0.6474 0.4483 -0.6164
vn 0.0300 0.1600 -0.9867
vn -0.9890 -0.0989 0.1099
vn -0.4413 -0.7047 0.5556
vn -0.0430 -0.3034 0.9519
vn 0.5051 -0.5713 -0.6469
vn -0.7650 -0.5294 -0.3668
vn 0.7358 -0.5845 0.3421
vn -0.3206 -0.0533 -0.9457
vn 0.4908 -0.3599 -0.7935
vn -0.0947 -0.0880 0.9916
vn -0.0424 0.1126 -0.9927
vn 0.9719 0.0399 -0.2320
vn 0.9702 0.2042 0.1306
vn -0.9824 0.0753 0.1708
vn 0.6624 0.2159 -0.7174
vn 0.7999 0.2781 0.5318
vn -0.5890 0.3458 0.7305
vn -0.9337 0.3504 0.0736
vn -0.0226 0.1780 -0.9838
vn -0.5771 0.5725 -0.5824
vn -0.5187 0.4467 0.7290
vn -0.8659 0.4816 -0.1349
vn 0.6355 0.3984 -0.6614
vn -0.3000 0.4487 -0.8418
vn -0.1534 0.5491 -0.8215
vn 0.1933 0.4425 0.8757
vn 0.8157 0.0610 0.5752
vn 0.3782 -0.8393 0.3906
vn -0.1376 -0.8958 0.4227
vn -0.3965 -0.4039 -0.8244
vn 0.6983 -0.1482 0.7004
vn -0.9219 -0.2850 -0.2624
vn 0.5753 -0.5686 -0.5880
vn -0.9128 0.3425 -0.2223
vn 0.7599 0.6212 -0.1913
vn -0.0839 0.3343 -0.9387
vn -0.7566 0.6329 0.1642
vn 0.0415 0.7983 0.6008
vn 0.2162 -0.3149 -0.9242
vn 0.2413 -0.3942 -0.8868
vn 0.8525 -0.2507 -0.4588
vn 0.8239 -0.5340 0.1897
vn 0.3960 -0.5753 0.7157
vn -0.1468 -0.5127 0.8459
vn -0.6462 -0.5327 0.5466
vn -0.8694 -0.2152 -0.4448
vn -0.7127 -0.4417 -0.5449
vn -0.4651 -0.2669 -0.8441
vn -0.3312 -0.4497 -0.8295
vn 0.1746 0.5704 -0.8026
vn 0.7240 0.5901 -0.3573
vn 0.2980 0.7758 0.5562
vn -0.5292 0.7323 0.4287
vn -0.6328 0.7540 -0.1762
vn -0.6763 0.6593 -0.3286
vn -0.3377 0.6765 -0.6544
vn -0.1878 0.7628 -0.6188
vn 0.4832 0.2775 -0.8304
vn 0.7136 0.1775 -0.6777
vn 0.4684 0.2145 0.8571
vn -0.7666 0.2478 0.5925
vn -0.9509 0.1867 -0.2468
vn -0.8889 0.2439 -0.3877
vn 0.1632 0.8203 -0.5481
vn 0.5723 0.8147 -0.0933
vn 0.4022 0.8479 0.3453
vn 0.0344 0.8511 0.5239
vn -0.5602 0.8264 0.0574
vn -0.3922 0.7896 -0.4719
vn 0.1727 0.9319 -0.3191
vn 0.5978 0.7710 -0.2194
vn 0.2976 0.7219 0.6247
vn -0.4805 0.8620 -0.1615
vn -0.3121 0.3455 -0.8850
vn -0.1366 0.9336 -0.3313
vn 0.0051 0.6393 -0.7690
vn -0.1455 0.6928 0.7063
vn 0.3498 0.7145 0.6059
vn 0.6615 0.6932 0.2862
vn 0.7079 0.6970 -0.1144
vn 0.5537 0.6470 -0.5243
vn -0.0193 0.8457 0.5334
vn -0.3241 -0.3896 -0.8621
vn 0.5159 0.4597 -0.7229
vn -0.2403 0.6410 -0.7290
vn -0.0049 -0.7446 0.6675
vn -0.1338 -0.6170 0.7755
vn 0.7118 -0.6769 -0.1876
vn -0.6737 -0.7345 -0.0818
vn 0.2899 -0.7597 0.5821
vn 0.6462 -0.3539 -0.6762
vn -0.6057 -0.6365 -0.4775
vn -0.0129 -0.9999 0.0108
vn 0.0187 -0.9998 0.0114
vn -0.0029 -1.0000 0.0004
vn 0.9643 0.2551 0.0706
vn -0.6774 -0.7348 -0.0357
vn -0.4943 -0.7496 0.4403
vn -0.1535 -0.7410 0.6537
vn 0.4086 -0.6010 0.6869
vn 0.4007 -0.8800 0.2552
vn 0.5632 -0.7889 0.2457
vn 0.6916 -0.7112 -0.1258
vn 0.0085 -0.7884 -0.6151
vn -0.0283 -0.1147 -0.9930
vn 0.5909 -0.1178 -0.7981
vn 0.9669 -0.2111 -0.1435
vn 0.8358 -0.3554 0.4185
vn -0.5207 -0.4487 0.7263
vn -0.4706 -0.5699 -0.6736
vn -0.5921 -0.3742 -0.7137
vn -0.4530 0.6392 0.6215
vn -0.1827 -0.8768 -0.4448
vn -0.3933 -0.9193 -0.0166
vn -0.3827 -0.9072 0.1747
vn 0.0560 -0.8577 0.5111
vn 0.3943 -0.9145 0.0901
vn 0.3676 -0.9298 0.0180
vn 0.4450 -0.8663 -0.2268
vn -0.0917 -0.1837 0.9787
vn 0.5509 0.7674 0.3281
vn -0.5739 0.6139 0.5419
vn -0.4287 0.7665 -0.4782
vn 0.8456 -0.2389 0.4773
vn 0.4915 0.0548 0.8692
vn -0.9567 -0.0215 -0.2903
vn 0.4467 -0.7923 0.4157
vn -0.1073 0.2667 -0.9578
vn -0.6431 0.0355 -0.7649
vn -0.9949 0.0368 0.0942
vn -0.6949 0.1787 0.6966
vn -0.4554 0.4865 0.7456
vn 0.4000 0.3296 0.8552
vn 0.9291 0.2098 0.3045
vn 0.9661 0.1233 -0.2268
vn 0.5570 0.1937 -0.8076
vn -0.5866 -0.7013 -0.4051
vn 0.3382 -0.7153 0.6115
vn -0.1450 -0.2447 -0.9587
vn 0.6271 -0.5398 0.5615
vn 0.7124 -0.5344 -0.4549
vn 0.4977 -0.5339 -0.6835
vn -0.9237 -0.1110 -0.3667
vn 0.1146 0.0153 0.9933
vn 0.6013 -0.1543 0.7840
vn -0.8097 -0.3616 0.4622
vn -0.9842 0.0734 0.1614
vn 0.8789 0.2027 -0.4319
vn 0.9950 0.0940 0.0338
vn -0.5097 0.1091 0.8534
vn -0.9493 0.2154 0.2290
vn -0.7274 0.2044 -0.6551
vn 0.9193 0.3933 -0.0137
vn 0.4668 0.4089 -0.7842
vn -0.7904 0.5967 -0.1384
vn -0.8670 0.4784 -0.1392
vn 0.8752 0.4820 -0.0405
vn 0.7705 0.5380 -0.3419
vn 0.6479 0.4754 0.5952
vn 0.6132 0.4884 0.6208
vn -0.3320 0.5239 0.7844
vn 0.2107 -0.9715 -0.1085
vn 0.6693 -0.3651 -0.6471
vn -0.0261 -0.8861 -0.4628
vn -0.8683 -0.4799 -0.1256
vn 0.7048 -0.4858 0.5170
vn -0.4821 -0.3344 0.8098
vn 0.9433 -0.0183 -0.3315
vn -0.4385 -0.0834 0.8948
vn -0.4670 0.2898 0.8354
vn 0.2467 0.2715 -0.9303
vn 0.8014 0.5124 -0.3086
vn -0.4583 -0.7852 -0.4165
vn -0.3042 0.6626 -0.6845
vn 0.6820 0.4395 0.5846
vn -0.0003 0.8906 0.4547
vn -0.3844 0.9176 0.1017
vn -0.1767 0.9078 -0.3803
vn 0.3308 0.9341 -0.1340
vn -0.0639 -0.9975 0.0310
vn -0.0120 -0.9986 -0.0518
vn 0.8447 -0.3135 -0.4338
vn 0.8802 0.0348 0.4733
vn 0.1406 -0.1084 0.9841
vn -0.5784 -0.2005 0.7907
vn -0.9491 -0.1646 0.2686
vn -0.8310 -0.5556 -0.0276
vn 0.4717 0.7657 -0.4372
vn 0.6512 0.7521 0.1009
vn 0.1074 0.6009 0.7920
vn -0.1856 0.7403 0.6462
vn -0.7712 0.5998 0.2135
vn -0.2732 0.1902 -0.9430
vn 0.3057 0.2782 0.9106
vn -0.2837 0.1954 0.9388
vn -0.7817 0.2607 0.5665
vn 0.2544 0.9552 0.1513
vn 0.1835 0.8610 -0.4743
vn 0.5878 0.8045 -0.0853
vn 0.5803 0.7338 0.3532
vn -0.1428 0.9193 0.3667
vn -0.5045 0.7496 0.4284
vn -0.7871 0.3501 -0.5078
vn 0.2664 0.9530 -0.1442
vn 0.4113 0.9008 -0.1394
vn -0.5722 0.7264 0.3807
vn -0.0041 0.8855 0.4646
vn -0.0284 0.9258 0.3769
vn -0.5419 0.6791 -0.4951
vn -0.3920 0.8813 0.2638
vn -0.3256 0.9455 -0.0097
vn -0.2533 0.9412 -0.2234
vn 0.0095 0.9677 -0.2521
vn -0.2395 0.7730 -0.5875
vn -0.7081 0.7056 -0.0283
vn -0.5334 0.7197 0.4445
vn -0.1060 0.7227 0.6830
vn 0.3337 0.7261 0.6012
vn 0.6199 0.7716 0.1426
vn 0.5712 0.7709 -0.2817
vn 0.1499 0.7631 -0.6286
vn 0.0191 -0.8463 -0.5323
vn -0.1131 -0.8126 -0.5717
vn -0.0533 -0.7668 -0.6397
vn 0.0122 0.8761 0.4820
vn -0.0857 0.9182 0.3866
vn -0.0056 0.8418 0.5398
vn -0.0061 0.8417 0.5400
vn -0.6610 0.1907 -0.7257
vn 0.3944 -0.0056 -0.9189
vn 0.9635 0.2265 0.1425
vn -0.4615 -0.7791 -0.4243
vn -0.3309 0.2162 -0.9186
vn 0.3323 0.9297 0.1586
vn -0.4131 0.8526 0.3201
vn -0.5461 0.7253 -0.4192
vn -0.7113 0.7024 -0.0250
vn -0.5322 0.7204 0.4447
vt 0.622374 0.795263
vt 0.353664 0.734673
vt 0.504766 0.994308
vt 0.208847 0.316158
vt 0.378156 0.115690
vt 0.216264 -0.005847
vt 0.358986 1.077284
vt 0.036981 1.317196
vt 0.474018 1.308649
vt 0.479610 1.061535
vt 0.520572 1.307615
vt 0.305669 1.076392
vt 0.138662 1.372491
vt 0.504766 1.307184
vt 0.353664 1.063439
vt 0.068327 1.396734
vt 0.929644 1.181915
vt 0.159429 1.202646
vt -0.277131 0.207033
vt -0.472833 0.104112
vt -0.272846 0.726477
vt 0.081713 -0.260046
vt 0.664622 -0.570219
vt 0.878308 -0.312167
vt 1.428005 0.875323
vt 1.339459 0.429935
vt 0.945347 1.388468
vt 0.801050 -1.342910
vt 1.151769 -1.645832
vt 0.349600 -1.622755
vt 1.042022 -1.427505
vt 0.388614 -1.641048
vt 1.195767 -1.645832
vt 0.670920 -1.402135
vt 0.312297 -1.642751
vt 1.122238 -1.629554
vt -0.339454 -0.153024
vt -0.416539 0.099676
vt 0.312297 -0.497937
vt 0.142505 -1.614603
vt 0.459830 -1.358973
vt 0.928472 -1.641269
vt 0.198276 -0.349918
vt -0.157809 -0.605532
vt 0.496051 -0.615468
vt -0.038769 0.797283
vt 0.523143 0.754448
vt 0.293904 0.673214
vt -0.115336 0.261955
vt 0.193050 0.439891
vt 0.149897 -0.072672
vt 0.403851 0.149512
vt 0.751538 0.266092
vt 0.958626 0.020735
vt 0.385446 1.085188
vt 0.803037 0.986162
vt 0.775726 0.607065
vt 0.717417 -0.144566
vt 0.984883 0.863715
vt 1.154211 0.447913
vt 0.984883 0.711910
vt 0.803037 0.601120
vt 0.385446 0.683188
vt 0.180601 0.598024
vt 0.801050 1.457321
vt 1.113045 1.272403
vt 1.402977 0.999193
vt 0.065540 -1.366092
vt -0.110196 -1.444775
vt 0.590999 0.118747
vt 0.363417 0.123249
vt 0.205880 0.265069
vt 0.632942 0.781194
vt 0.794164 0.641758
vt 0.414898 0.795076
vt 0.531284 1.056628
vt 0.640852 0.872557
vt 0.307897 0.866579
vt 0.590999 0.868049
vt 0.476518 1.051718
vt 0.363417 0.926345
vt 0.758090 1.076392
vt 0.782181 0.918684
vt 0.270511 0.918684
vt 0.444938 0.862798
vt 0.684587 0.874806
vt 0.804778 1.048346
vt 0.824023 0.915893
vt 0.559534 1.048346
vt 0.632942 0.915893
vt 0.414898 0.871173
vt 0.654224 1.146595
vt 0.476518 0.135978
vt 0.601993 1.139915
vt 0.378156 1.129312
vt 0.622374 1.141618
vt 0.777889 1.066071
vt 0.916712 1.372491
vt 0.249711 1.438962
vt 0.288015 1.685175
vt 0.720320 1.558609
vt 0.963217 1.460514
vt 0.650683 1.269875
vt 0.407943 1.761302
vt 0.216264 1.317196
vt 0.823086 1.460514
vt 0.606949 1.748616
vt 0.371646 1.910468
vt 0.170004 1.539349
vt 0.559001 1.713762
vt 0.906425 1.835599
vt 0.021441 1.680324
vt 0.041108 1.539349
vt 0.101324 1.969617
vt 0.325113 1.969617
vt 0.565987 1.808472
vt 0.505848 1.948057
vt -0.021798 1.740244
vt 0.302592 2.312700
vt 0.392123 2.312700
vt 0.642440 2.310180
vt 0.583909 2.004760
vt 0.602255 2.323418
vt 0.961218 1.845579
vt 0.155767 1.937243
vt 0.340185 2.310180
vt 0.784397 1.680324
vt 0.549293 2.321350
vt 0.449346 2.320290
vt 0.527537 2.340653
vt 0.228695 2.351821
vt 0.707928 0.406517
vt 0.549990 0.185867
vt 0.549293 0.250664
vt 0.302592 0.349295
vt 0.306706 2.480438
vt 0.543581 2.370803
vt 0.549990 2.351821
vt 0.793072 2.474051
vt 0.562943 2.514552
vt 0.380689 2.460659
vt 0.709750 2.480438
vt 0.761538 2.340653
vt 0.702756 2.460986
vt 0.563518 2.643194
vt 0.445189 2.474051
vt 0.676101 2.646914
vt 0.415105 2.666876
vt 0.593619 2.646914
vt 0.356484 2.636855
vt 0.562943 0.164354
vt 0.643008 0.372277
vt 0.371792 0.313656
vt 0.374566 -0.614247
vt 0.968310 -0.604982
vt 0.434064 -0.801292
vt 0.937417 -0.791057
vt 0.582780 -0.803708
vt 1.044679 -0.791057
vt 0.075109 -0.803675
vt 0.932365 -0.605532
vt 0.598237 -0.803276
vt 1.065434 -0.803675
vt 0.296609 -0.610832
vt 0.177960 -0.798636
vt -0.113623 -0.798636
vt 0.059413 -0.609943
vt 0.279793 -0.800504
vt 0.572896 -0.613265
vt 1.031641 -0.603623
vt 0.739321 -0.802350
vt 1.040344 -0.802833
vt -0.036421 -0.603623
vt 0.093677 -0.802833
vt 0.648827 -0.340500
vt 1.118995 -0.604982
vt 0.637024 -0.346528
vt 0.931460 0.155448
vt 0.531921 -0.063801
vt 0.932365 -0.200637
vt 0.227154 0.029294
vt 0.001762 0.325256
vt -0.123966 0.016584
vt 0.125100 0.807402
vt -0.268717 0.530067
vt 0.850231 -0.347519
vt -0.036421 0.988812
vt 0.374566 1.211921
vt 0.648827 0.957702
vt 0.523143 0.486700
vt 0.775726 0.487853
vt 0.649894 0.487853
vt 1.000530 -0.340500
vt 0.751538 0.484897
vt 0.531921 -0.353607
vt 0.931460 -0.349918
vt 0.192341 0.485355
vt 0.368085 -0.338397
vt 0.072122 -0.348768
vt 0.482720 0.484250
vt 0.716042 0.480972
vt 0.845378 0.402110
vt 0.332556 -0.114855
vt 1.525617 0.259014
vt 1.250535 -0.235312
vt 0.670920 -0.566032
vt -0.332218 1.068464
vt -0.530128 0.417002
vt 0.159429 -1.270239
vt -0.332218 -1.370692
vt 0.138929 1.428462
vt 0.068327 -1.114098
vt 0.945347 -1.111109
vt -0.022266 -1.108936
vt 0.664622 -1.118310
vt 1.065434 0.032281
vt 1.287109 -0.204563
vt 1.520884 0.333881
vt 0.376710 -1.113794
vt 0.918152 -1.108342
vt 0.937417 1.001851
vt 0.232624 0.691693
vt 0.961218 0.582631
vt 0.557676 0.756421
vt -0.013143 1.713762
vt 0.232624 1.897704
vt 0.543889 1.886882
vt 0.557676 1.945959
vt 1.002979 1.748616
vt 0.601993 0.102204
vt 0.650683 -0.043144
vt 0.649931 1.066071
vt 0.169120 0.611395
vt -0.029422 0.431190
vt 0.758090 0.262841
vt 0.138662 0.873883
vt 1.122238 -0.325170
vt 1.151769 1.152938
vt 1.453338 0.345785
vt -0.381611 0.885643
vt 0.308920 0.484897
vt -0.440891 0.838119
vt -0.022266 -0.419551
vt 1.287109 -1.113034
vt 0.878308 -1.267967
vt 0.138929 -1.429518
vt 1.402977 -1.427505
vt 0.301843 -1.368930
vt -0.282342 -1.629554
vt -0.339454 -1.444775
vt -0.381611 -1.641269
vt 0.296609 -0.290870
vt 0.149897 0.601176
vt 0.717417 0.700850
vt 0.332556 0.734708
vt -0.192483 -1.354929
vt 1.250535 -1.354929
vt 1.111292 -1.370692
vt 0.782181 0.227682
vt 0.180601 0.872557
vt 0.208847 1.077284
vt 0.205880 0.866579
vt 0.794164 0.874806
vt 0.191773 0.488456
vt -0.000315 1.269875
vt 0.623816 1.740244
vt 1.020077 1.438962
vt 0.762621 1.835599
vt 0.984981 1.685175
vt 0.625459 1.845579
vt 0.775516 1.937243
vt 0.682541 2.323418
vt 0.707928 2.320290
vt 0.602255 0.639712
vt 0.761538 0.484709
vt 0.769954 2.370803
vt 0.340185 0.599612
vt 0.543581 0.727126
vt 0.219155 2.460659
vt 0.701426 2.460986
vt 0.371792 2.636855
vt 0.332171 2.643194
vt 0.207182 2.514552
vt 0.501188 0.449128
vt 0.332171 0.520690
vt 0.593619 0.633272
vt 0.349600 1.412149
vt -0.123966 -0.609943
vt 0.968310 1.076166
vt 0.995543 0.594195
vt 1.284312 0.453222
vt 0.125100 -0.347519
vt 0.403851 0.485355
vt 0.227154 -0.348768
vt 0.777502 1.063439
vt 0.065540 -0.491949
vt 0.093677 0.997516
vt 0.434064 1.134271
vt 0.880948 -1.113196
vt -0.153282 0.236964
vt 0.598237 -0.226584
vt 0.177960 -0.156452
vt 1.182279 0.539951
vt 0.583909 0.849288
vt 0.155767 0.732687
vt 0.021854 0.523158
vt 0.906425 0.719793
vt 0.543889 0.803825
vt 1.002979 0.564121
vt -0.013143 0.516173
vt -0.021798 0.580988
vt 0.505848 0.899613
vt 0.021854 1.808472
vt 0.293904 0.480972
vt -0.136779 0.696493
vt 0.146941 -1.119388
s 0
f 124/1/1 52/2/1 53/3/1
f 49/4/2 121/5/2 1/6/2
f 49/7/3 1/8/3 127/9/3
f 122/10/4 56/11/4 123/12/4
f 105/13/5 53/14/5 52/15/5
f 89/16/6 3/17/6 9/18/6
f 90/19/7 140/20/7 120/21/7
f 6/22/8 140/20/8 90/19/8
f 86/23/9 6/22/9 5/24/9
f 83/25/10 4/26/10 3/17/10
f 82/27/11 83/25/11 3/17/11
f 39/28/12 74/29/12 78/30/12
f 10/31/13 75/32/13 74/33/13
f 42/34/14 91/35/14 12/36/14
f 43/37/15 76/38/15 91/39/15
f 76/40/16 44/41/16 77/42/16
f 26/43/17 19/44/17 18/45/17
f 98/46/18 95/47/18 31/48/18
f 38/49/19 31/48/19 30/50/19
f 97/51/20 30/50/20 96/52/20
f 117/53/21 33/54/21 96/52/21
f 95/47/22 34/55/22 32/56/22
f 32/56/23 116/57/23 95/47/23
f 33/54/24 36/58/24 97/51/24
f 134/59/25 99/60/25 32/56/25
f 134/61/26 32/62/26 34/63/26
f 38/49/27 126/64/27 98/46/27
f 39/65/28 40/66/28 10/67/28
f 42/34/29 13/68/29 91/35/29
f 43/69/30 44/41/30 76/40/30
f 102/70/31 47/71/31 101/72/31
f 46/73/32 35/74/32 100/75/32
f 48/76/33 126/77/33 101/78/33
f 102/79/34 118/80/34 47/81/34
f 123/82/35 118/80/35 103/83/35
f 122/10/36 103/84/36 125/85/36
f 35/86/37 122/10/37 125/85/37
f 119/87/38 35/86/38 46/88/38
f 119/89/39 46/90/39 100/91/39
f 49/7/40 50/92/40 48/76/40
f 121/5/41 49/4/41 118/93/41
f 51/94/42 121/95/42 118/80/42
f 124/96/43 2/97/43 119/89/43
f 50/92/44 127/9/44 105/98/44
f 123/12/45 56/11/45 55/99/45
f 53/14/46 105/13/46 58/100/46
f 53/14/47 108/101/47 57/102/47
f 106/103/48 62/104/48 1/105/48
f 53/14/49 58/100/49 108/101/49
f 56/11/50 57/106/50 104/107/50
f 104/107/51 61/108/51 55/99/51
f 127/9/52 54/109/52 60/110/52
f 57/102/53 108/101/53 128/111/53
f 55/99/54 61/108/54 67/112/54
f 54/113/55 62/104/55 66/114/55
f 60/110/56 66/115/56 107/116/56
f 108/101/57 58/100/57 64/117/57
f 58/100/58 59/118/58 64/117/58
f 66/114/59 62/104/59 81/119/59
f 81/120/60 110/121/60 66/115/60
f 129/122/61 69/123/61 63/124/61
f 65/125/62 110/126/62 129/122/62
f 110/126/63 69/123/63 129/122/63
f 67/127/64 109/128/64 62/104/64
f 68/129/65 131/130/65 132/131/65
f 68/132/66 132/133/66 109/134/66
f 109/134/67 132/133/67 81/135/67
f 110/126/68 111/136/68 133/137/68
f 132/138/69 72/139/69 73/140/69
f 70/141/70 111/142/70 110/121/70
f 131/143/71 133/137/71 130/144/71
f 70/141/72 113/145/72 111/142/72
f 72/146/73 114/147/73 112/148/73
f 133/137/74 111/136/74 114/149/74
f 71/150/75 113/145/75 70/141/75
f 73/151/76 112/152/76 71/153/76
f 80/154/77 79/155/77 135/156/77
f 135/156/78 79/155/78 139/157/78
f 18/45/79 15/158/79 139/159/79
f 18/45/80 138/160/80 15/158/80
f 19/161/81 92/162/81 138/163/81
f 92/162/82 20/164/82 137/165/82
f 137/166/83 21/167/83 136/168/83
f 22/169/84 23/170/84 16/171/84
f 16/171/85 23/170/85 17/172/85
f 23/173/86 80/154/86 17/174/86
f 17/174/87 80/154/87 135/156/87
f 24/175/88 79/155/88 80/154/88
f 79/176/89 25/177/89 18/45/89
f 26/178/90 27/179/90 19/180/90
f 28/181/91 94/182/91 21/183/91
f 94/182/92 29/184/92 22/185/92
f 29/186/93 23/170/93 22/169/93
f 23/187/94 29/184/94 80/188/94
f 29/184/95 24/189/95 80/188/95
f 95/190/96 116/191/96 24/175/96
f 116/192/97 25/177/97 24/193/97
f 117/194/98 27/195/98 26/196/98
f 96/197/99 94/198/99 28/199/99
f 30/200/100 29/186/100 94/198/100
f 30/200/101 31/201/101 29/186/101
f 100/75/102 134/59/102 34/55/102
f 125/202/103 99/60/103 134/59/103
f 125/202/104 102/70/104 36/58/104
f 102/70/105 37/203/105 36/58/105
f 38/49/106 101/72/106 126/64/106
f 126/64/107 100/75/107 34/55/107
f 3/17/108 40/66/108 39/65/108
f 4/26/109 11/204/109 40/66/109
f 41/205/110 5/24/110 42/206/110
f 120/21/111 45/207/111 44/208/111
f 9/209/112 39/28/112 45/210/112
f 45/207/113 39/65/113 14/211/113
f 89/212/114 135/156/114 82/213/114
f 137/165/115 87/214/115 86/215/115
f 138/216/116 86/23/116 85/217/116
f 138/216/117 85/217/117 84/218/117
f 15/158/118 84/219/118 83/220/118
f 139/221/119 83/25/119 82/27/119
f 8/222/120 63/223/120 93/224/120
f 60/225/121 8/226/121 7/227/121
f 7/227/122 93/228/122 104/229/122
f 8/226/123 93/228/123 7/227/123
f 51/230/124 106/231/124 121/5/124
f 1/105/125 121/95/125 106/103/125
f 122/10/126 2/232/126 56/11/126
f 50/233/127 49/4/127 127/234/127
f 123/235/128 106/231/128 51/230/128
f 124/96/129 53/14/129 2/97/129
f 50/233/130 105/236/130 52/2/130
f 12/237/131 74/238/131 75/239/131
f 91/39/132 74/238/132 12/237/132
f 77/240/133 74/238/133 91/39/133
f 117/241/134 25/177/134 116/192/134
f 140/20/135 88/242/135 120/21/135
f 87/243/136 140/20/136 6/22/136
f 86/23/137 87/243/137 6/22/137
f 85/244/138 86/215/138 5/245/138
f 4/26/139 85/217/139 5/24/139
f 84/218/140 85/217/140 4/26/140
f 83/25/141 84/218/141 4/26/141
f 3/17/142 89/16/142 82/27/142
f 78/30/143 14/246/143 39/28/143
f 74/29/144 39/28/144 10/247/144
f 75/32/145 10/31/145 11/248/145
f 75/32/146 11/248/146 12/249/146
f 91/35/147 13/68/147 43/250/147
f 77/251/148 14/246/148 78/30/148
f 77/251/149 45/210/149 14/246/149
f 20/252/150 28/181/150 21/183/150
f 98/46/151 34/55/151 95/47/151
f 31/48/152 38/49/152 98/46/152
f 30/50/153 97/51/153 38/49/153
f 96/52/154 33/54/154 97/51/154
f 99/60/155 33/54/155 117/53/155
f 116/57/156 99/60/156 117/53/156
f 32/56/157 99/60/157 116/57/157
f 97/253/158 36/254/158 37/255/158
f 33/54/159 99/60/159 36/58/159
f 97/51/160 37/203/160 38/49/160
f 126/64/161 34/55/161 98/46/161
f 11/248/162 41/256/162 12/249/162
f 12/36/163 41/257/163 42/34/163
f 44/41/164 45/258/164 77/42/164
f 125/202/165 103/259/165 102/70/165
f 52/15/166 119/89/166 100/91/166
f 100/91/167 126/260/167 52/15/167
f 101/78/168 49/7/168 48/76/168
f 47/81/169 49/261/169 101/262/169
f 118/80/170 49/261/170 47/81/170
f 103/83/171 118/80/171 102/79/171
f 103/84/172 122/10/172 123/12/172
f 35/86/173 2/232/173 122/10/173
f 119/89/174 2/97/174 35/263/174
f 48/264/175 50/233/175 52/2/175
f 123/235/176 51/230/176 118/93/176
f 119/89/177 52/15/177 124/96/177
f 123/12/178 55/99/178 106/265/178
f 2/232/179 57/106/179 56/11/179
f 2/97/180 53/14/180 57/102/180
f 127/9/181 59/266/181 105/98/181
f 106/103/182 67/127/182 62/104/182
f 106/103/183 55/267/183 67/127/183
f 1/8/184 54/109/184 127/9/184
f 59/266/185 127/9/185 60/110/185
f 104/107/186 57/106/186 128/268/186
f 56/11/187 104/107/187 55/99/187
f 54/113/188 1/105/188 62/104/188
f 60/110/189 54/109/189 66/115/189
f 105/98/190 59/266/190 58/269/190
f 61/108/191 104/107/191 63/270/191
f 128/111/192 108/101/192 64/117/192
f 107/116/193 66/115/193 65/271/193
f 65/271/194 66/115/194 110/121/194
f 61/108/195 63/270/195 68/129/195
f 68/129/196 63/270/196 69/272/196
f 67/112/197 61/108/197 68/129/197
f 109/128/198 67/127/198 68/273/198
f 62/104/199 109/128/199 81/119/199
f 68/132/200 69/274/200 131/275/200
f 69/272/201 133/276/201 131/130/201
f 110/277/202 133/278/202 69/274/202
f 110/121/203 81/120/203 70/141/203
f 131/130/204 72/146/204 132/131/204
f 81/119/205 132/138/205 70/279/205
f 131/130/206 130/280/206 72/146/206
f 132/138/207 73/140/207 70/279/207
f 70/279/208 73/140/208 71/281/208
f 130/144/209 133/137/209 114/149/209
f 72/146/210 130/280/210 114/147/210
f 9/18/211 88/242/211 89/16/211
f 114/149/212 111/136/212 113/282/212
f 73/283/213 72/146/213 112/148/213
f 71/153/214 112/152/214 115/284/214
f 113/285/215 71/153/215 115/284/215
f 114/286/216 113/285/216 115/284/216
f 112/152/217 114/286/217 115/284/217
f 77/240/218 91/39/218 76/38/218
f 74/238/219 77/240/219 78/287/219
f 139/159/220 79/176/220 18/45/220
f 18/45/221 19/44/221 138/160/221
f 92/162/222 19/161/222 20/164/222
f 137/165/223 20/164/223 21/288/223
f 136/168/224 21/167/224 22/169/224
f 136/168/225 22/169/225 16/171/225
f 79/289/226 24/189/226 25/290/226
f 18/291/227 25/290/227 26/178/227
f 19/161/228 27/195/228 20/164/228
f 20/252/229 27/179/229 28/181/229
f 21/167/230 94/198/230 22/169/230
f 29/292/231 95/190/231 24/175/231
f 117/194/232 96/293/232 27/195/232
f 27/195/233 96/293/233 28/294/233
f 96/197/234 30/200/234 94/198/234
f 41/205/235 4/26/235 5/24/235
f 100/75/236 35/74/236 134/59/236
f 134/59/237 35/74/237 125/202/237
f 99/60/238 125/202/238 36/58/238
f 37/203/239 102/70/239 101/72/239
f 37/203/240 101/72/240 38/49/240
f 126/77/241 48/76/241 52/295/241
f 40/66/242 3/17/242 4/26/242
f 40/66/243 11/204/243 10/67/243
f 13/296/244 90/19/244 44/208/244
f 5/24/245 13/296/245 42/206/245
f 5/24/246 6/22/246 13/296/246
f 88/242/247 17/297/247 89/16/247
f 13/296/248 44/208/248 43/37/248
f 90/19/249 120/21/249 44/208/249
f 120/21/250 9/18/250 45/207/250
f 39/65/251 9/18/251 3/17/251
f 89/16/252 17/297/252 135/298/252
f 88/299/253 136/168/253 16/171/253
f 87/243/254 136/300/254 140/20/254
f 92/301/255 137/302/255 86/23/255
f 86/23/256 138/216/256 92/301/256
f 84/218/257 15/303/257 138/216/257
f 139/221/258 15/303/258 83/25/258
f 135/298/259 139/221/259 82/27/259
f 63/223/260 8/222/260 129/304/260
f 65/305/261 8/222/261 107/306/261
f 129/304/262 8/222/262 65/305/262
f 128/307/263 7/308/263 104/309/263
f 60/310/264 7/308/264 59/311/264
f 59/311/265 7/308/265 64/312/265
f 64/312/266 7/308/266 128/307/266
f 60/225/267 107/313/267 8/226/267
f 104/229/268 93/228/268 63/124/268
f 117/241/269 26/43/269 25/177/269
f 9/18/270 120/21/270 88/242/270
f 29/292/271 31/314/271 95/190/271
f 41/205/272 11/204/272 4/26/272
f 13/296/273 6/22/273 90/19/273
f 88/242/274 16/315/274 17/297/274
f 88/299/275 140/316/275 136/168/275
f 87/243/276 137/302/276 136/300/276
