# Blender 5.0.1
# www.blender.org
o House1
v 2.264247 2.238037 -1.000000
v 2.264247 -2.238037 -1.000000
v 2.264247 2.238037 1.000000
v 2.264247 -2.238037 1.000000
v -2.264247 2.238037 -1.000000
v -2.264247 -2.238037 -1.000000
v -2.264247 2.238037 1.000000
v -2.264247 -2.238037 1.000000
v 0.912601 -2.238037 -1.000000
v -1.471903 -2.238037 -1.000000
v 0.912601 2.238037 1.000000
v -1.471903 2.238037 1.000000
v -1.471903 -2.238037 1.000000
v 0.912601 -2.238037 1.000000
v -1.471903 2.238037 -1.000000
v 0.912601 2.238037 -1.000000
v 0.912601 -2.238037 -1.828255
v -1.471903 -2.238037 -1.828255
v 0.912601 2.238037 1.828255
v -1.471903 2.238037 1.828255
v -1.471903 -2.238037 1.828255
v 0.912601 -2.238037 1.828255
v -1.471903 2.238037 -1.828255
v 0.912601 2.238037 -1.828255
v -2.264247 -2.238037 0.000000
v 2.264247 3.238037 0.000000
v -2.264247 3.238037 0.000000
v 2.264247 -2.238037 0.000000
v -1.471903 -2.238037 0.000000
v 0.912601 -2.238037 0.000000
v 0.912601 3.238037 0.000000
v -1.471903 3.238037 0.000000
v -0.279651 -2.238037 -1.000000
v -0.279651 3.238037 1.000000
v -0.279651 -2.238037 1.000000
v -0.279651 3.238037 -1.000000
v -0.279651 -2.238037 -1.828255
v -0.279651 3.238037 1.828255
v -0.279651 -2.238037 1.828255
v -0.279651 3.238037 -1.828255
v -0.279651 3.238037 0.000000
v -0.279651 -2.238037 0.000000
v 2.537935 2.197619 -1.111075
v 2.537935 2.197619 1.111075
v -2.493561 2.197619 -1.111075
v -2.493561 2.197619 1.111075
v 1.036155 2.197619 1.111075
v -1.613207 2.197619 1.111075
v -1.613207 2.197619 -1.111075
v 1.036155 2.197619 -1.111075
v 1.036155 2.197619 2.031328
v -1.613207 2.197619 2.031328
v -1.613207 2.197619 -2.031328
v 1.036155 2.197619 -2.031328
v 2.537935 3.197619 0.000000
v -2.493561 3.197619 0.000000
v 1.036155 3.197619 0.000000
v -1.613207 3.197619 0.000000
v -0.288526 3.197619 1.111075
v -0.288526 3.197619 -1.111075
v -0.288526 3.197619 2.031328
v -0.288526 3.197619 -2.031328
v -0.288526 3.197619 0.000000
v -1.613207 2.324456 1.111075
v -2.493561 2.324456 1.111075
v 2.537935 3.324456 0.000000
v 2.537935 2.324456 1.111075
v -2.493561 3.324456 0.000000
v -2.493561 2.324456 -1.111075
v 1.036155 2.324456 -1.111075
v 2.537935 2.324456 -1.111075
v 1.036155 2.324456 1.111075
v -0.288526 3.324456 1.111075
v -1.613207 2.324456 -1.111075
v -0.288526 3.324456 -1.111075
v 1.036155 3.324456 0.000000
v -1.613207 3.324456 0.000000
v -0.288526 3.324456 2.031328
v -1.613207 2.324456 2.031328
v -0.288526 3.324456 -2.031328
v 1.036155 2.324456 -2.031328
v 1.036155 2.324456 2.031328
v -1.613207 2.324456 -2.031328
v -0.288526 3.324456 0.000000
v 2.264247 -0.747347 -1.000000
v -2.264247 -0.747347 1.000000
v 2.264247 -0.747347 1.000000
v -2.264247 -0.747347 -1.000000
v -1.471903 -0.747347 -1.000000
v 0.912601 -0.747347 -1.000000
v 0.912601 -0.747347 1.000000
v -1.471903 -0.747347 1.000000
v -1.471903 -0.747347 -1.828255
v 0.912601 -0.747347 -1.828255
v 0.912601 -0.747347 1.828255
v -1.471903 -0.747347 1.828255
v 2.264247 -0.747347 0.000000
v -2.264247 -0.747347 0.000000
v -0.279651 -0.747347 -1.828255
v 0.912601 -2.238037 1.374180
v 0.912601 -0.747347 1.388017
v 1.859015 -2.238037 1.000000
v 1.859015 -0.747347 1.000000
v 1.859015 -2.238037 1.374180
v 1.859015 -0.747347 1.388017
v 1.385808 -0.585647 1.194008
v 0.878776 -0.815009 0.996550
v 0.878776 -0.815009 1.465668
v 2.023004 -0.815009 0.996550
v 2.023004 -0.815009 1.465668
v 1.450890 -0.619511 1.231109
v 2.023004 -0.755608 0.996550
v 0.878776 -0.755608 0.996550
v 0.878776 -0.755608 1.465668
v 2.023004 -0.755608 1.465668
v 1.450890 -0.560110 1.231109
v 1.488341 -1.038922 1.385311
v 1.819491 -1.041014 1.385291
v 1.814532 -1.682582 1.379336
v 1.490291 -1.676382 1.379393
v 1.488341 -1.038558 1.346077
v 1.819491 -1.040650 1.346057
v 1.814532 -1.682218 1.340102
v 1.490291 -1.676017 1.340159
v -0.279651 -1.106974 1.828255
v -0.559744 -0.747347 1.828255
v 0.505833 -0.747347 1.828255
v -0.279651 1.241101 1.828255
v -0.566717 -1.108353 1.828255
v 0.504620 1.242398 1.828255
v 0.506040 -1.103313 1.828255
v -0.521411 1.240701 1.828255
v -0.279651 1.241101 1.723022
v -0.279651 -0.747347 1.723022
v 0.505833 -0.747347 1.723022
v -0.279651 -1.106974 1.723022
v -0.559744 -0.747347 1.723022
v -0.566717 -1.108353 1.723022
v 0.504620 1.242398 1.723022
v 0.506040 -1.103313 1.723022
v -0.521411 1.240701 1.723022
v 2.264247 2.836590 -0.401447
v 2.264247 2.682181 0.555856
v 2.264247 2.640762 0.597275
v 2.264247 2.960193 0.000000
v 2.264247 1.320396 0.000000
v 2.264247 1.319725 -0.420664
v 2.264247 1.321266 0.635466
v 2.185402 2.682181 0.555856
v 2.185402 2.640762 0.597275
v 2.185402 2.960193 0.000000
v 2.185402 1.320396 0.000000
v 2.185402 1.319725 -0.420664
v 2.185402 2.836590 -0.401447
v 2.185402 1.321266 0.635466
v 2.264247 -0.747347 0.636371
v 2.264247 -2.238037 0.645727
v 2.264247 -2.238037 -0.562413
v 2.264247 -0.747347 -0.566566
v 2.191141 -2.238037 0.645727
v 2.191141 -2.238037 0.000000
v 2.191141 -0.747347 0.000000
v 2.191141 -0.747347 -0.566566
v 2.191141 -0.747347 0.636371
v 2.191141 -2.238037 -0.562413
v -2.264247 -2.238037 -0.552528
v -2.264247 -1.594801 0.000000
v -2.264247 -1.589104 -0.548354
v -2.264247 -2.238037 0.548613
v -2.264247 -1.596056 0.560601
v -2.174205 -2.238037 -0.552528
v -2.174205 -2.238037 0.000000
v -2.174205 -1.594801 0.000000
v -2.174205 -1.589104 -0.548354
v -2.174205 -2.238037 0.548613
v -2.174205 -1.596056 0.560601
v -2.264247 3.045693 0.000000
v -2.264247 0.941687 0.000000
v -2.264247 3.028588 -0.209449
v -2.264247 0.924906 -0.400616
v -2.264247 2.664441 -0.435747
v -2.264247 0.967251 0.611697
v -2.264247 2.628718 0.589441
v -2.264247 3.054758 0.111002
v -2.156088 3.045693 -0.000000
v -2.156088 0.941687 -0.000000
v -2.156088 0.924906 -0.400616
v -2.156088 3.028588 -0.209449
v -2.156088 2.664441 -0.435747
v -2.156088 0.967251 0.611697
v -2.156088 2.628718 0.589441
v -2.156088 3.054758 0.111002
v 0.394843 -0.747347 -1.828255
v 0.784019 -0.747347 -1.828255
v 0.772279 1.521515 -1.828255
v 0.397864 1.517131 -1.828255
v 0.394331 -1.040690 -1.828255
v 0.785399 -1.042474 -1.828255
v 0.394843 -0.747347 -1.725242
v 0.784019 -0.747347 -1.725242
v 0.772279 1.521515 -1.725242
v 0.397864 1.517131 -1.725242
v 0.394331 -1.040690 -1.725242
v 0.785399 -1.042474 -1.725242
v -1.272142 -0.747347 -1.828255
v -0.908520 -0.747347 -1.828255
v -1.267798 -1.019570 -1.828255
v -0.909408 -1.038481 -1.828255
v -0.902836 1.351727 -1.828255
v -1.306826 1.358207 -1.828255
v -1.272142 -0.747347 -1.727742
v -0.908520 -0.747347 -1.727742
v -1.267798 -1.019570 -1.727742
v -0.909408 -1.038481 -1.727742
v -0.902836 1.351727 -1.727742
v -1.306826 1.358207 -1.727742
vn -0.0000 0.7071 0.7071
vn -0.0000 -0.0000 1.0000
vn -1.0000 -0.0000 -0.0000
vn -0.0000 -1.0000 -0.0000
vn 1.0000 -0.0000 -0.0000
vn -0.0000 -0.0000 -1.0000
vn -0.6426 0.7662 -0.0000
vn -0.0000 1.0000 -0.0000
vn 0.9998 -0.0193 -0.0000
vn 0.6426 0.7662 -0.0000
vn -0.0000 0.7071 -0.7071
vn 0.5101 0.6082 -0.6082
vn 0.5101 0.6082 0.6082
vn -0.0000 -0.7433 -0.6690
vn 0.6025 -0.7981 -0.0000
vn -0.6025 -0.7981 -0.0000
vn 0.4893 -0.6482 0.5834
vn -0.0000 -0.7433 0.6690
vn -0.4893 -0.6482 0.5834
vn -0.0000 0.7433 0.6690
vn -0.6025 0.7981 -0.0000
vn 0.6025 0.7981 -0.0000
vn -0.0000 0.7433 -0.6690
vn 0.4893 0.6482 -0.5834
vn 0.4893 0.6482 0.5834
vn -0.0000 -1.0000 -0.0022
vn -0.0000 -0.0093 1.0000
vn 0.3234 -0.9463 -0.0000
vn -0.3234 0.9463 -0.0000
vn -0.0000 0.7682 0.6402
vn 0.3234 0.9463 -0.0000
vn -0.0000 0.7682 -0.6402
vn -0.0000 -0.7682 -0.6402
vn -0.3234 -0.9463 -0.0000
vn -0.0000 -0.7682 0.6402
vn 1.0000 0.0031 -0.0000
vn -1.0000 0.0077 0.0001
vn 0.0191 0.9998 0.0093
vn -0.0063 -0.9999 -0.0093
vn 0.0017 -1.0000 -0.0000
vn -0.0047 1.0000 -0.0000
vn -1.0000 -0.0006 -0.0000
vn -0.0048 1.0000 -0.0000
vn -0.0000 1.0000 -0.0014
vn -0.0000 -0.0289 -0.9996
vn -0.0000 -0.0127 0.9999
vn -0.0000 -0.7071 -0.7071
vn -0.0000 -0.8944 -0.4473
vn -0.0000 -0.9557 0.2943
vn -0.0000 1.0000 -0.0016
vn -0.0000 -0.0063 -1.0000
vn -0.0000 0.0028 1.0000
vn -0.0000 -0.9999 -0.0104
vn -0.0000 0.0187 -0.9998
vn -0.0000 -0.0064 1.0000
vn -0.0000 -0.9967 0.0814
vn -0.0000 0.0202 0.9998
vn -0.0000 -0.7468 -0.6650
vn -0.0000 0.9991 -0.0418
vn -0.0000 -0.5278 0.8494
vn -0.0000 0.9991 -0.0419
vn -0.0000 -0.0134 -0.9999
vn -1.0000 -0.0052 -0.0000
vn 0.0046 1.0000 -0.0000
vn 0.0117 -0.9999 -0.0000
vn -1.0000 -0.0047 -0.0000
vn 1.0000 -0.0017 -0.0000
vn 1.0000 -0.0013 -0.0000
vn 0.9999 0.0165 -0.0000
vn 0.0527 0.9986 -0.0000
vn -1.0000 0.0031 -0.0000
vn 0.9999 0.0160 -0.0000
vn -1.0000 0.0027 -0.0000
vn -0.0160 -0.9999 -0.0000
vn -0.5101 0.6082 0.6082
vn -0.5101 0.6082 -0.6082
vn 0.4893 -0.6482 -0.5834
vn -0.4893 -0.6482 -0.5834
vn -0.4893 0.6482 0.5834
vn -0.4893 0.6482 -0.5834
vt 0.039493 0.627914
vt 0.672974 0.832470
vt 0.146326 0.627914
vt 0.065033 0.994144
vt 0.006134 0.698254
vt 0.065033 0.698254
vt 0.543347 0.970470
vt 0.582131 0.931391
vt 0.582131 0.657783
vt 0.338456 0.713496
vt 0.311968 0.682621
vt 0.250106 0.682621
vt 0.466978 0.815651
vt 0.441481 0.917911
vt 0.466915 0.584910
vt 0.191660 0.996206
vt 0.293534 0.696193
vt 0.191660 0.696193
vt 0.319213 0.987447
vt 0.387437 0.702543
vt 0.319213 0.702543
vt 0.248642 1.164199
vt 0.166537 0.769611
vt 0.210178 0.769611
vt 0.094245 0.769773
vt 0.042454 0.682621
vt 0.042454 0.721960
vt 0.250106 0.769773
vt 0.172176 0.682621
vt 0.172176 0.769773
vt 0.563181 0.856774
vt 0.456742 0.543319
vt 0.531270 0.543319
vt 0.716145 0.792482
vt 0.716145 0.832470
vt 0.759317 0.880750
vt 0.650078 0.448139
vt 0.650078 0.520539
vt 0.716145 0.880750
vt 0.179696 0.288953
vt 0.360727 0.222652
vt 0.282570 0.174855
vt 0.282360 0.007384
vt 0.282722 0.032403
vt 0.094245 0.856926
vt 0.172176 0.929110
vt 0.172176 0.856926
vt 0.318174 0.987447
vt 0.389490 0.702543
vt 0.318174 0.702543
vt 0.119463 0.550507
vt 0.057895 0.698254
vt 0.119463 0.698254
vt 0.217869 0.546388
vt 0.280295 0.696193
vt 0.217869 0.696193
vt 0.467833 0.807690
vt 0.307080 0.956590
vt 0.307080 0.807690
vt 0.250106 0.650010
vt 0.172176 0.610436
vt 0.650078 0.627914
vt 0.650078 0.700085
vt 0.250106 0.856926
vt 0.042454 0.769773
vt 0.042454 0.817927
vt 0.581371 0.917911
vt 0.540850 0.815479
vt 0.511426 0.584910
vt 0.338456 0.856926
vt 0.338456 0.818789
vt 0.444658 0.657783
vt 0.444658 0.931391
vt 0.472878 0.967196
vt 0.039493 0.807690
vt 0.039493 0.665568
vt 0.094245 0.610436
vt 0.094245 0.682621
vt 0.146326 0.956590
vt 0.146326 0.807690
vt 0.250106 0.929110
vt 0.359252 0.239303
vt 0.297281 0.170211
vt 0.338046 0.170301
vt -0.001336 0.222652
vt 0.023729 0.164318
vt 0.759317 0.832470
vt 0.467833 0.299239
vt 0.667857 0.827107
vt 0.635979 0.880750
vt 0.667857 0.880750
vt 0.715824 0.782677
vt 0.715824 0.827107
vt 0.818171 0.827107
vt 0.763791 0.880750
vt 0.818171 0.880750
vt 0.715824 0.880750
vt 0.715824 0.978824
vt 0.763791 0.934394
vt 0.715824 0.934394
vt 0.667857 0.934394
vt 0.818171 0.934394
vt 0.635979 0.934394
vt 0.667857 0.978824
vt 0.763791 0.782677
vt 0.763791 0.827107
vt 0.739565 0.891494
vt 0.772960 0.835297
vt 0.772960 0.891494
vt 0.823211 0.788752
vt 0.823211 0.835297
vt 0.873461 0.891494
vt 0.930430 0.835297
vt 0.930430 0.891494
vt 0.823211 0.891494
vt 0.873461 0.947691
vt 0.823211 0.994236
vt 0.823211 0.947691
vt 0.930430 0.947691
vt 0.739565 0.947691
vt 0.772960 0.947691
vt 0.772960 0.994236
vt 0.873461 0.835297
vt 0.873461 0.788752
vt 0.667857 0.939155
vt 0.635979 0.945278
vt 0.635979 0.939155
vt 0.809253 0.939155
vt 0.775930 0.945278
vt 0.775930 0.939155
vt 0.735698 0.987435
vt 0.695466 0.945278
vt 0.695466 0.939155
vt 0.735698 0.993559
vt 0.715824 0.987435
vt 0.667857 0.945278
vt 0.763791 0.945278
vt 0.715824 0.993559
vt 0.763791 0.939155
vt 0.818171 0.945278
vt 0.818171 0.939155
vt 0.662143 0.939155
vt 0.947048 0.787695
vt 0.913725 0.793819
vt 0.913725 0.787695
vt 0.809253 0.945278
vt -0.001336 -0.074117
vt 0.084073 0.005415
vt 0.179696 0.024717
vt 0.359252 0.032403
vt 0.338120 0.007733
vt 0.297281 -0.070908
vt 0.513395 0.580114
vt 0.474861 0.579999
vt 0.581371 0.418633
vt 0.551055 0.584910
vt 0.550764 0.418633
vt 0.280295 0.996206
vt 0.217869 0.996206
vt 0.057895 0.994144
vt 0.119463 0.994144
vt 0.389490 0.560282
vt 0.318174 0.560282
vt 0.235310 0.032403
vt 0.235310 -0.070908
vt 0.282033 0.005268
vt 0.341413 0.005150
vt 0.360727 -0.074117
vt 0.563181 0.543319
vt 0.531270 0.386801
vt 0.563181 0.386801
vt 0.262653 0.420696
vt 0.190248 0.036094
vt 0.262653 0.036094
vt 0.387437 0.560282
vt 0.319213 0.560282
vt 0.191660 0.546388
vt 0.293534 0.546388
vt 0.006134 0.550507
vt 0.065033 0.550507
vt 0.166537 0.572581
vt 0.211550 0.572581
vt 0.281327 0.182209
vt 0.356591 0.261146
vt 0.164426 0.261146
vt 0.800391 0.948015
vt 0.877531 0.905847
vt 0.800391 0.863679
vt 0.804952 0.947395
vt 0.804952 0.877639
vt 0.868755 0.912517
vt 0.932559 0.877639
vt 0.932559 0.947395
vt 0.954670 0.863679
vt 0.954670 0.948015
vt 0.954670 0.803047
vt 0.800391 0.813726
vt 0.800391 0.803047
vt 0.463272 0.303790
vt 0.617550 0.314469
vt 0.617550 0.303790
vt 0.775854 0.850168
vt 0.712602 0.860846
vt 0.712602 0.850168
vt 0.182268 0.303790
vt 0.245520 0.314469
vt 0.245520 0.303790
vt 0.015097 0.765905
vt 0.404326 0.560721
vt 0.015097 0.560721
vt 0.281723 0.009631
vt 0.164426 -0.142425
vt 0.356591 -0.142425
vt 0.348566 0.181642
vt 0.347559 0.007952
vt 0.297281 0.032403
vt 0.284715 0.170184
vt 0.297281 0.007479
vt 0.297281 0.308608
vt 0.338109 0.032403
vt 0.511426 0.815554
vt 0.539505 0.984676
vt 0.511426 0.998463
vt 0.511426 1.029454
vt 0.469650 0.962832
vt 0.472547 0.967452
vt 0.650078 0.527985
vt 0.466261 0.418633
vt 0.441481 0.584910
vt 0.441481 0.418633
vt 0.511426 0.418633
vt 0.338456 0.769773
vt 0.551374 0.521162
vt 0.513395 0.521162
vt 0.551087 0.580637
vt 0.513395 0.657783
vt 0.582131 0.521162
vt 0.475685 0.521162
vt 0.527792 1.003844
vt 0.513395 1.005412
vt 0.513395 1.023040
vt 0.540932 0.811043
vt 0.513395 0.812581
vt 0.471349 0.814924
vt 0.505765 1.006242
vt 0.341203 0.024717
vt 0.282111 0.024717
vt 0.339421 0.175146
vt 0.084208 0.024717
vt 0.029655 0.006669
vt 0.028996 0.024717
vt 0.085071 0.163888
vt 0.039493 0.448139
vt 0.006134 0.994144
vt 0.338456 0.682621
vt 0.293534 0.996206
vt 0.387437 0.987447
vt 0.248642 0.769611
vt 0.166537 1.164199
vt 0.456742 0.856774
vt 0.672974 0.792482
vt 0.360727 0.024717
vt 0.094245 0.929110
vt 0.389490 0.987447
vt 0.057895 0.550507
vt 0.280295 0.546388
vt 0.467833 0.956590
vt 0.250106 0.610436
vt 0.650078 0.807690
vt 0.042454 0.856926
vt 0.581371 0.584910
vt -0.001336 0.024717
vt 0.635979 0.827107
vt 0.667857 0.782677
vt 0.763791 0.978824
vt 0.739565 0.835297
vt 0.772960 0.788752
vt 0.873461 0.994236
vt 0.662143 0.945278
vt 0.947048 0.793819
vt 0.179696 -0.074117
vt 0.359252 -0.070908
vt 0.444658 0.521162
vt 0.187570 0.420696
vt 0.954670 0.813726
vt 0.463272 0.314469
vt 0.775854 0.860846
vt 0.182268 0.314469
vt 0.404326 0.765905
vt 0.235310 0.239303
s 0
f 27/1/1 12/2/1 32/3/1
f 12/4/2 86/5/2 92/6/2
f 181/7/3 5/8/3 88/9/3
f 157/10/4 102/11/4 14/12/4
f 148/13/5 3/14/5 156/15/5
f 16/16/6 85/17/6 90/18/6
f 5/19/6 89/20/6 88/21/6
f 11/22/5 95/23/5 101/24/5
f 29/25/4 8/26/4 169/27/4
f 30/28/4 35/29/4 42/30/4
f 3/31/2 91/32/2 103/33/2
f 12/2/7 38/34/7 34/35/7
f 31/36/1 3/37/1 144/38/1
f 32/3/8 34/35/8 41/39/8
f 40/40/6 24/41/6 196/42/6
f 129/43/9 137/44/9 126/44/9
f 10/45/4 37/46/4 33/47/4
f 15/48/3 93/49/3 89/50/3
f 13/51/3 96/52/3 92/53/3
f 9/54/5 94/55/5 90/56/5
f 16/57/10 40/58/10 36/59/10
f 14/12/4 100/60/4 39/61/4
f 36/59/8 32/3/8 41/39/8
f 16/57/11 26/62/11 142/63/11
f 9/64/4 42/30/4 33/47/4
f 10/45/4 25/65/4 166/66/4
f 1/67/5 147/68/5 97/69/5
f 2/70/4 158/71/4 30/28/4
f 86/72/3 7/73/3 183/74/3
f 5/75/11 179/76/11 32/3/11
f 33/47/4 29/25/4 10/45/4
f 36/59/12 31/36/12 16/57/12
f 35/29/4 21/77/4 13/78/4
f 36/59/7 23/79/7 15/80/7
f 33/47/4 17/81/4 9/64/4
f 19/82/2 128/83/2 130/84/2
f 23/85/6 40/40/6 210/86/6
f 31/36/13 34/35/13 11/87/13
f 34/35/10 19/88/10 11/87/10
f 42/30/4 13/78/4 29/25/4
f 48/89/14 56/90/14 58/91/14
f 61/92/15 48/89/15 59/93/15
f 44/94/14 57/95/14 55/96/14
f 59/93/4 58/91/4 63/97/4
f 62/98/16 50/99/16 60/100/16
f 60/100/17 58/91/17 49/101/17
f 55/96/18 50/99/18 43/102/18
f 58/91/18 45/103/18 49/101/18
f 57/95/19 60/100/19 50/99/19
f 53/104/15 60/100/15 49/101/15
f 57/95/4 59/93/4 63/97/4
f 51/105/16 59/93/16 47/106/16
f 68/107/20 64/108/20 77/109/20
f 64/108/21 78/110/21 73/111/21
f 76/112/20 67/113/20 66/114/20
f 77/109/8 73/111/8 84/115/8
f 70/116/22 80/117/22 75/118/22
f 75/118/8 77/109/8 84/115/8
f 70/116/23 66/114/23 71/119/23
f 69/120/23 77/109/23 74/121/23
f 75/118/24 76/112/24 70/116/24
f 75/118/21 83/122/21 74/121/21
f 76/112/25 73/111/25 72/123/25
f 73/111/22 82/124/22 72/123/22
f 48/125/2 65/126/2 46/127/2
f 54/128/5 70/129/5 50/130/5
f 55/131/5 67/132/5 44/133/5
f 55/131/5 71/129/5 66/134/5
f 56/131/3 69/129/3 45/130/3
f 56/131/3 65/132/3 68/134/3
f 61/135/2 79/136/2 52/125/2
f 61/135/2 82/137/2 78/138/2
f 50/139/6 71/140/6 43/141/6
f 62/135/6 81/137/6 54/139/6
f 62/135/6 83/136/6 80/138/6
f 44/141/2 72/137/2 47/139/2
f 52/142/3 64/132/3 48/133/3
f 47/143/5 82/144/5 51/145/5
f 45/127/6 74/136/6 49/125/6
f 49/130/3 83/146/3 53/128/3
f 18/147/6 208/148/6 99/149/6
f 95/150/2 131/151/2 39/152/2
f 86/72/3 167/153/3 170/154/3
f 2/155/5 159/156/5 158/157/5
f 90/56/5 24/158/5 16/159/5
f 92/53/3 20/160/3 12/161/3
f 89/50/3 18/162/3 10/163/3
f 129/43/2 96/164/2 21/165/2
f 197/166/6 198/167/6 17/168/6
f 87/169/2 102/170/2 4/171/2
f 103/172/5 104/173/5 102/174/5
f 88/21/6 10/175/6 6/176/6
f 9/177/6 85/17/6 2/178/6
f 156/15/4 162/69/4 97/69/4
f 167/153/26 176/154/26 170/154/26
f 92/6/2 8/179/2 13/180/2
f 101/24/5 22/181/5 100/182/5
f 117/183/27 105/184/27 101/185/27
f 107/186/28 111/187/28 108/188/28
f 91/189/29 101/190/29 106/191/29
f 101/190/30 105/192/30 106/191/30
f 105/192/31 103/193/31 106/191/31
f 103/193/32 91/189/32 106/191/32
f 108/188/33 111/187/33 110/194/33
f 110/194/34 111/187/34 109/195/34
f 109/195/35 111/187/35 107/186/35
f 113/186/29 114/188/29 116/187/29
f 114/188/30 115/194/30 116/187/30
f 115/194/31 112/195/31 116/187/31
f 112/195/32 113/186/32 116/187/32
f 110/196/2 114/197/2 108/198/2
f 107/199/6 112/200/6 109/201/6
f 109/202/5 115/203/5 110/204/5
f 108/205/3 113/206/3 107/207/3
f 14/208/4 104/209/4 100/210/4
f 120/211/27 100/212/27 104/213/27
f 120/211/36 121/183/36 117/183/36
f 124/211/27 122/214/27 121/183/27
f 118/214/37 123/215/37 119/215/37
f 119/215/38 124/211/38 120/211/38
f 117/183/39 122/214/39 118/214/39
f 134/216/2 141/217/2 137/44/2
f 128/83/40 139/84/40 130/84/40
f 131/151/41 136/218/41 125/218/41
f 132/217/40 133/83/40 128/83/40
f 132/217/2 38/219/2 96/164/2
f 137/44/2 136/218/2 134/216/2
f 135/220/2 133/83/2 134/216/2
f 140/151/2 134/216/2 136/218/2
f 126/44/9 141/217/9 132/217/9
f 127/220/42 140/151/42 131/151/42
f 130/84/42 135/220/42 127/220/42
f 125/218/43 138/43/43 129/43/43
f 152/221/5 154/222/5 151/223/5
f 146/221/44 155/13/44 148/13/44
f 145/223/5 142/222/5 26/224/5
f 148/13/45 150/225/45 144/225/45
f 143/226/5 145/223/5 26/224/5
f 155/13/5 151/223/5 149/226/5
f 142/222/46 153/68/46 147/68/46
f 144/38/47 149/227/47 143/227/47
f 143/226/48 151/223/48 145/223/48
f 145/223/49 154/222/49 142/222/49
f 147/68/50 152/221/50 146/221/50
f 157/228/5 87/229/5 4/230/5
f 161/231/5 164/15/5 160/228/5
f 157/228/51 164/15/51 156/15/51
f 165/157/5 162/69/5 161/231/5
f 159/156/52 165/157/52 158/157/52
f 158/71/8 161/232/8 28/232/8
f 28/232/8 160/10/8 157/10/8
f 97/69/4 163/156/4 159/156/4
f 173/153/3 171/233/3 172/234/3
f 168/235/3 98/236/3 6/237/3
f 25/65/8 171/66/8 166/66/8
f 175/238/3 173/153/3 172/234/3
f 168/235/53 173/153/53 167/153/53
f 170/154/54 175/238/54 169/238/54
f 169/27/8 172/65/8 25/65/8
f 166/233/55 174/235/55 168/235/55
f 179/239/56 185/240/56 177/240/56
f 177/240/3 27/241/3 179/239/3
f 180/242/57 189/7/57 181/7/57
f 189/7/3 186/243/3 185/240/3
f 190/244/3 192/245/3 185/240/3
f 184/245/58 191/74/58 183/74/58
f 182/244/59 186/243/59 178/243/59
f 181/7/60 188/239/60 179/239/60
f 178/243/61 187/242/61 180/242/61
f 177/240/56 192/245/56 184/245/56
f 183/74/62 190/244/62 182/244/62
f 202/42/6 200/246/6 199/247/6
f 194/246/63 201/248/63 195/248/63
f 197/166/64 204/167/64 198/167/64
f 200/246/6 203/166/6 199/247/6
f 195/248/65 202/42/65 196/42/65
f 198/167/66 200/246/66 194/246/66
f 193/247/67 203/166/67 197/166/67
f 196/42/68 199/247/68 193/247/68
f 212/249/6 213/250/6 211/251/6
f 210/86/69 211/251/69 205/251/69
f 207/250/70 214/148/70 208/148/70
f 211/251/6 215/252/6 212/249/6
f 208/148/71 212/249/71 206/249/71
f 205/251/72 213/250/72 207/250/72
f 206/249/73 215/252/73 209/252/73
f 209/252/74 216/86/74 210/86/74
f 27/1/1 7/253/1 12/2/1
f 12/4/2 7/254/2 86/5/2
f 88/9/3 98/236/3 178/243/3
f 88/9/3 178/243/3 180/242/3
f 181/7/3 179/239/3 5/8/3
f 88/9/3 180/242/3 181/7/3
f 14/12/4 30/28/4 28/232/4
f 157/10/4 4/255/4 102/11/4
f 14/12/4 28/232/4 157/10/4
f 156/15/5 97/69/5 146/221/5
f 148/13/5 144/225/5 3/14/5
f 156/15/5 146/221/5 148/13/5
f 3/14/5 87/229/5 156/15/5
f 16/16/6 1/256/6 85/17/6
f 5/19/6 15/257/6 89/20/6
f 101/24/5 91/258/5 11/22/5
f 11/22/5 19/259/5 95/23/5
f 169/27/4 25/65/4 29/25/4
f 29/25/4 13/78/4 8/26/4
f 30/28/4 14/12/4 35/29/4
f 103/33/2 87/169/2 3/31/2
f 3/31/2 11/260/2 91/32/2
f 12/2/7 20/261/7 38/34/7
f 143/227/1 26/62/1 31/36/1
f 31/36/1 11/87/1 3/37/1
f 144/38/1 143/227/1 31/36/1
f 32/3/75 12/2/75 34/35/75
f 193/247/6 99/149/6 40/40/6
f 24/41/6 94/262/6 194/246/6
f 24/41/6 194/246/6 195/248/6
f 196/42/6 193/247/6 40/40/6
f 24/41/6 195/248/6 196/42/6
f 129/43/9 138/43/9 137/44/9
f 10/45/4 18/263/4 37/46/4
f 15/48/3 23/264/3 93/49/3
f 13/51/3 21/265/3 96/52/3
f 9/54/5 17/266/5 94/55/5
f 16/57/10 24/267/10 40/58/10
f 39/61/4 35/29/4 14/12/4
f 100/60/4 22/268/4 39/61/4
f 36/59/76 15/80/76 32/3/76
f 142/63/11 1/269/11 16/57/11
f 16/57/11 31/36/11 26/62/11
f 9/64/4 30/28/4 42/30/4
f 166/66/4 6/270/4 10/45/4
f 10/45/4 29/25/4 25/65/4
f 159/156/5 85/271/5 1/67/5
f 1/67/5 142/222/5 147/68/5
f 147/68/5 146/221/5 97/69/5
f 97/69/5 159/156/5 1/67/5
f 30/28/4 9/64/4 2/70/4
f 158/71/4 28/232/4 30/28/4
f 27/241/3 177/240/3 184/245/3
f 27/241/3 184/245/3 183/74/3
f 178/243/3 98/236/3 86/72/3
f 182/244/3 178/243/3 86/72/3
f 7/73/3 27/241/3 183/74/3
f 183/74/3 182/244/3 86/72/3
f 32/3/11 15/80/11 5/75/11
f 179/76/11 27/1/11 32/3/11
f 33/47/4 42/30/4 29/25/4
f 36/59/8 41/39/8 31/36/8
f 35/29/4 39/61/4 21/77/4
f 36/59/7 40/58/7 23/79/7
f 33/47/4 37/46/4 17/81/4
f 127/220/2 95/150/2 19/82/2
f 19/82/2 38/219/2 128/83/2
f 130/84/2 127/220/2 19/82/2
f 205/251/6 93/272/6 23/85/6
f 40/40/6 99/149/6 206/249/6
f 40/40/6 206/249/6 209/252/6
f 210/86/6 205/251/6 23/85/6
f 40/40/6 209/252/6 210/86/6
f 31/36/8 41/39/8 34/35/8
f 34/35/10 38/34/10 19/88/10
f 42/30/4 35/29/4 13/78/4
f 48/89/14 46/273/14 56/90/14
f 61/92/15 52/274/15 48/89/15
f 44/94/14 47/106/14 57/95/14
f 59/93/77 48/89/77 58/91/77
f 62/98/16 54/275/16 50/99/16
f 60/100/4 63/97/4 58/91/4
f 55/96/18 57/95/18 50/99/18
f 58/91/18 56/90/18 45/103/18
f 57/95/4 63/97/4 60/100/4
f 53/104/15 62/98/15 60/100/15
f 57/95/78 47/106/78 59/93/78
f 51/105/16 61/92/16 59/93/16
f 68/107/20 65/276/20 64/108/20
f 64/108/21 79/277/21 78/110/21
f 76/112/20 72/123/20 67/113/20
f 77/109/79 64/108/79 73/111/79
f 70/116/22 81/278/22 80/117/22
f 75/118/80 74/121/80 77/109/80
f 70/116/23 76/112/23 66/114/23
f 69/120/23 68/107/23 77/109/23
f 75/118/8 84/115/8 76/112/8
f 75/118/21 80/117/21 83/122/21
f 76/112/8 84/115/8 73/111/8
f 73/111/22 78/110/22 82/124/22
f 48/125/2 64/136/2 65/126/2
f 54/128/5 81/146/5 70/129/5
f 55/131/5 66/134/5 67/132/5
f 55/131/5 43/130/5 71/129/5
f 56/131/3 68/134/3 69/129/3
f 56/131/3 46/133/3 65/132/3
f 61/135/2 78/138/2 79/136/2
f 61/135/2 51/139/2 82/137/2
f 50/139/6 70/137/6 71/140/6
f 62/135/6 80/138/6 81/137/6
f 62/135/6 53/125/6 83/136/6
f 44/141/2 67/140/2 72/137/2
f 52/142/3 79/279/3 64/132/3
f 47/143/5 72/280/5 82/144/5
f 45/127/6 69/126/6 74/136/6
f 49/130/3 74/129/3 83/146/3
f 18/147/6 93/272/6 205/251/6
f 18/147/6 205/251/6 207/250/6
f 99/149/6 37/281/6 18/147/6
f 208/148/6 206/249/6 99/149/6
f 18/147/6 207/250/6 208/148/6
f 39/152/2 22/282/2 95/150/2
f 95/150/2 127/220/2 131/151/2
f 131/151/2 125/218/2 39/152/2
f 169/238/3 8/283/3 86/72/3
f 86/72/3 98/236/3 167/153/3
f 170/154/3 169/238/3 86/72/3
f 2/155/5 85/271/5 159/156/5
f 90/56/5 94/55/5 24/158/5
f 92/53/3 96/52/3 20/160/3
f 89/50/3 93/49/3 18/162/3
f 21/165/2 39/152/2 125/218/2
f 129/43/2 126/44/2 96/164/2
f 21/165/2 125/218/2 129/43/2
f 17/168/6 37/281/6 99/149/6
f 99/149/6 193/247/6 197/166/6
f 198/167/6 194/246/6 94/262/6
f 17/168/6 99/149/6 197/166/6
f 198/167/6 94/262/6 17/168/6
f 87/169/2 103/33/2 102/170/2
f 103/172/5 105/284/5 104/173/5
f 88/21/6 89/20/6 10/175/6
f 9/177/6 90/18/6 85/17/6
f 156/15/4 164/15/4 162/69/4
f 167/153/26 173/153/26 176/154/26
f 92/6/2 86/5/2 8/179/2
f 101/24/5 95/23/5 22/181/5
f 117/183/27 118/214/27 105/184/27
f 110/196/2 115/285/2 114/197/2
f 107/199/6 113/286/6 112/200/6
f 109/202/5 112/287/5 115/203/5
f 108/205/3 114/288/3 113/206/3
f 14/208/4 102/289/4 104/209/4
f 104/213/27 105/184/27 118/214/27
f 104/213/27 118/214/27 119/215/27
f 117/183/27 101/185/27 100/212/27
f 104/213/27 119/215/27 120/211/27
f 120/211/27 117/183/27 100/212/27
f 120/211/36 124/211/36 121/183/36
f 124/211/27 123/215/27 122/214/27
f 118/214/37 122/214/37 123/215/37
f 119/215/38 123/215/38 124/211/38
f 117/183/39 121/183/39 122/214/39
f 134/216/2 133/83/2 141/217/2
f 128/83/40 133/83/40 139/84/40
f 131/151/41 140/151/41 136/218/41
f 132/217/40 141/217/40 133/83/40
f 96/164/2 126/44/2 132/217/2
f 132/217/2 128/83/2 38/219/2
f 38/219/2 20/290/2 96/164/2
f 137/44/2 138/43/2 136/218/2
f 135/220/2 139/84/2 133/83/2
f 140/151/2 135/220/2 134/216/2
f 126/44/9 137/44/9 141/217/9
f 127/220/42 135/220/42 140/151/42
f 130/84/42 139/84/42 135/220/42
f 125/218/43 136/218/43 138/43/43
f 152/221/5 153/68/5 154/222/5
f 146/221/44 152/221/44 155/13/44
f 148/13/45 155/13/45 150/225/45
f 149/226/5 150/225/5 155/13/5
f 155/13/5 152/221/5 151/223/5
f 142/222/46 154/222/46 153/68/46
f 144/38/47 150/38/47 149/227/47
f 143/226/48 149/226/48 151/223/48
f 145/223/49 151/223/49 154/222/49
f 147/68/50 153/68/50 152/221/50
f 157/228/5 156/15/5 87/229/5
f 161/231/5 162/69/5 164/15/5
f 157/228/51 160/228/51 164/15/51
f 165/157/5 163/156/5 162/69/5
f 159/156/52 163/156/52 165/157/52
f 158/71/8 165/71/8 161/232/8
f 28/232/8 161/232/8 160/10/8
f 97/69/4 162/69/4 163/156/4
f 173/153/3 174/235/3 171/233/3
f 6/237/3 166/233/3 168/235/3
f 168/235/3 167/153/3 98/236/3
f 98/236/3 88/9/3 6/237/3
f 25/65/8 172/65/8 171/66/8
f 175/238/3 176/154/3 173/153/3
f 168/235/53 174/235/53 173/153/53
f 170/154/54 176/154/54 175/238/54
f 169/27/8 175/27/8 172/65/8
f 166/233/55 171/233/55 174/235/55
f 179/239/56 188/239/56 185/240/56
f 180/242/57 187/242/57 189/7/57
f 185/240/3 188/239/3 189/7/3
f 189/7/3 187/242/3 186/243/3
f 185/240/3 186/243/3 190/244/3
f 190/244/3 191/74/3 192/245/3
f 184/245/58 192/245/58 191/74/58
f 182/244/59 190/244/59 186/243/59
f 181/7/60 189/7/60 188/239/60
f 178/243/61 186/243/61 187/242/61
f 177/240/56 185/240/56 192/245/56
f 183/74/62 191/74/62 190/244/62
f 202/42/6 201/248/6 200/246/6
f 194/246/63 200/246/63 201/248/63
f 197/166/64 203/166/64 204/167/64
f 200/246/6 204/167/6 203/166/6
f 195/248/65 201/248/65 202/42/65
f 198/167/66 204/167/66 200/246/66
f 193/247/67 199/247/67 203/166/67
f 196/42/68 202/42/68 199/247/68
f 212/249/6 214/148/6 213/250/6
f 210/86/69 216/86/69 211/251/69
f 207/250/70 213/250/70 214/148/70
f 211/251/6 216/86/6 215/252/6
f 208/148/71 214/148/71 212/249/71
f 205/251/72 211/251/72 213/250/72
f 206/249/73 212/249/73 215/252/73
f 209/252/74 215/252/74 216/86/74
l 91 14
