# Blender 5.0.1
# www.blender.org
o King.001
v -0.088981 0.501593 -0.107465
v 0.030890 0.614050 0.204147
v 0.073559 -0.744030 -0.379839
v 0.241411 -0.744629 -0.298873
v 0.338463 -0.744865 -0.182207
v 0.387327 -0.743039 0.002397
v 0.337408 -0.744629 0.183739
v 0.211482 -0.744608 0.324347
v 0.034681 -0.744629 0.382624
v -0.114383 -0.744629 0.366770
v -0.246033 -0.744629 0.295079
v -0.339627 -0.745552 0.179449
v -0.386892 -0.744030 0.001957
v -0.324347 -0.744608 -0.211482
v -0.149871 -0.745050 -0.357394
v 0.135442 -0.691792 -0.326987
v 0.271834 -0.693830 -0.223759
v 0.347786 -0.693587 -0.069964
v 0.337263 -0.694721 0.102308
v 0.249034 -0.693108 0.252682
v 0.099082 -0.693772 0.337788
v -0.069024 -0.692664 0.347007
v -0.222672 -0.694486 0.273240
v -0.310076 -0.692780 0.165739
v -0.354753 -0.693587 0.000770
v -0.310753 -0.693830 -0.165514
v -0.223759 -0.693830 -0.271834
v 0.002614 -0.638542 -0.364870
v 0.171481 -0.637525 -0.319061
v 0.302499 -0.637288 -0.203828
v 0.360714 -0.637284 -0.035527
v 0.346359 -0.637980 0.105067
v 0.280185 -0.637284 0.229942
v 0.170619 -0.637980 0.319207
v 0.038116 -0.637605 0.360187
v -0.105216 -0.637284 0.346852
v -0.230443 -0.637407 0.279239
v -0.319975 -0.637737 0.170103
v -0.360702 -0.637605 0.032886
v -0.345830 -0.637605 -0.107652
v -0.278309 -0.637605 -0.231801
v -0.168417 -0.637605 -0.320661
v 0.046843 -0.564611 -0.290516
v -0.172480 -0.568094 0.241220
v -0.205992 -0.561405 -0.208976
v -0.000000 -0.444264 -0.245407
v 0.047876 -0.444264 -0.240691
v 0.093913 -0.444264 -0.226726
v 0.136341 -0.444264 -0.204048
v 0.173529 -0.444264 -0.173529
v 0.204048 -0.444264 -0.136341
v 0.226726 -0.444264 -0.093913
v 0.240691 -0.444264 -0.047876
v 0.245407 -0.444264 -0.000000
v 0.240691 -0.444264 0.047876
v 0.226726 -0.444264 0.093913
v 0.204048 -0.444264 0.136341
v 0.173529 -0.444264 0.173529
v 0.136341 -0.444264 0.204048
v 0.093913 -0.444264 0.226726
v 0.047876 -0.444264 0.240691
v -0.000000 -0.444264 0.245407
v -0.047876 -0.444264 0.240691
v -0.093913 -0.444264 0.226726
v -0.136341 -0.444264 0.204048
v -0.173529 -0.444264 0.173529
v -0.204048 -0.444264 0.136341
v -0.226726 -0.444264 0.093913
v -0.240691 -0.444264 0.047876
v -0.245407 -0.444264 -0.000000
v -0.240691 -0.444264 -0.047876
v -0.226726 -0.444264 -0.093913
v -0.204048 -0.444264 -0.136341
v -0.173529 -0.444264 -0.173529
v -0.136341 -0.444264 -0.204048
v -0.093913 -0.444264 -0.226726
v -0.047876 -0.444264 -0.240691
v 0.195934 -0.560918 -0.220111
v 0.280118 -0.564072 -0.084682
v 0.288522 -0.562645 0.057391
v 0.226105 -0.563761 0.185560
v 0.138332 -0.565198 0.258800
v -0.015619 -0.561605 0.294865
v -0.249386 -0.565203 0.157053
v -0.291700 -0.564485 0.027391
v -0.275009 -0.563619 -0.104450
v -0.084313 -0.564572 -0.280620
v -0.001350 -0.371396 -0.267093
v 0.123675 -0.371686 -0.234301
v 0.220629 -0.371459 -0.150508
v 0.267406 -0.371183 0.000000
v 0.233003 -0.371686 0.126104
v 0.147266 -0.371396 0.222830
v -0.028016 -0.371432 0.268539
v -0.188239 -0.371292 0.189173
v -0.268369 -0.371503 0.029418
v -0.223210 -0.371034 -0.146851
v -0.125743 -0.371388 -0.233286
v -0.019805 -0.329538 -0.198065
v 0.046678 0.160621 -0.112569
v 0.115742 0.160568 -0.046565
v 0.115392 0.160604 0.035731
v 0.077924 0.160545 0.095050
v 0.000916 0.160585 0.121742
v -0.078220 0.160620 0.095225
v -0.122585 0.160589 0.010890
v -0.094415 0.160707 -0.078937
v -0.023730 0.160493 -0.119297
v 0.112581 -0.077833 -0.060176
v 0.080319 -0.076400 0.099156
v -0.013290 -0.068687 0.125706
v -0.088442 -0.075831 0.089673
v -0.123326 -0.073901 0.025310
v -0.135298 -0.176653 -0.030460
v -0.098688 -0.163054 -0.094103
v 0.093970 0.254385 -0.219128
v 0.222130 0.256530 -0.094191
v 0.237945 0.232512 0.104607
v 0.138831 0.256873 0.198356
v -0.064839 0.253881 0.232338
v -0.196437 0.232858 0.170243
v -0.240332 0.254829 -0.023671
v -0.165541 0.253641 -0.172266
v -0.043608 0.254385 -0.234405
v 0.124703 0.189964 -0.219240
v 0.243444 0.190474 -0.066740
v 0.221532 0.189764 0.118411
v 0.050186 0.190663 0.252300
v -0.179519 0.189783 0.180212
v -0.251572 0.189964 -0.018116
v -0.176944 0.190501 -0.177319
v -0.042870 0.190499 -0.246034
v 0.139693 0.220589 -0.220761
v 0.228129 0.220173 -0.123794
v 0.261548 0.221342 0.003201
v 0.139693 0.220589 0.220761
v -0.033278 0.220629 0.261978
v -0.261999 0.219653 0.030387
v -0.208778 0.220629 -0.161715
v -0.033278 0.220629 -0.261978
v 0.057684 0.304377 -0.137511
v 0.133921 0.303956 -0.070899
v 0.146122 0.304377 0.029749
v 0.096103 0.303866 0.117102
v -0.014014 0.304487 0.149935
v -0.125533 0.304298 0.087613
v -0.145196 0.304322 -0.041819
v -0.058206 0.303950 -0.142250
v 0.146359 0.333225 -0.078811
v 0.156183 0.333250 0.064693
v 0.046513 0.333102 0.159747
v -0.078811 0.333225 0.146358
v -0.152343 0.333100 0.062689
v -0.155015 0.332580 -0.065848
v -0.062277 0.333194 -0.152394
v 0.000000 0.358981 -0.119915
v 0.023395 0.358981 -0.117611
v 0.045890 0.358981 -0.110787
v 0.066622 0.358981 -0.099706
v 0.084793 0.358981 -0.084793
v 0.099706 0.358981 -0.066621
v 0.110788 0.358981 -0.045890
v 0.117611 0.358981 -0.023394
v 0.119916 0.358981 0.000000
v 0.117611 0.358981 0.023394
v 0.110788 0.358981 0.045890
v 0.099706 0.358981 0.066621
v 0.084793 0.358981 0.084793
v 0.066622 0.358981 0.099706
v 0.045890 0.358981 0.110787
v 0.023395 0.358981 0.117611
v 0.000000 0.358981 0.119915
v -0.023394 0.358981 0.117611
v -0.045889 0.358981 0.110787
v -0.066621 0.358981 0.099706
v -0.084793 0.358981 0.084793
v -0.099706 0.358981 0.066621
v -0.110787 0.358981 0.045890
v -0.117611 0.358981 0.023394
v -0.119915 0.358981 0.000000
v -0.117611 0.358981 -0.023394
v -0.110787 0.358981 -0.045890
v -0.099706 0.358981 -0.066621
v -0.084793 0.358981 -0.084793
v -0.066621 0.358981 -0.099706
v -0.045889 0.358981 -0.110787
v -0.023394 0.358981 -0.117611
v 0.067506 0.440297 -0.103745
v 0.118536 0.440529 -0.023906
v 0.107231 0.439996 0.058417
v 0.034107 0.440401 0.117251
v -0.047346 0.440453 0.111140
v -0.108170 0.440805 0.056659
v -0.114339 0.440116 -0.046871
v -0.036782 0.440401 -0.116439
v 0.149184 0.472937 -0.059414
v 0.154856 0.472671 0.046975
v 0.065468 0.472786 0.150883
v -0.045455 0.472928 0.152776
v -0.124373 0.473000 0.104166
v -0.161917 0.473063 -0.032207
v -0.074257 0.472884 -0.144312
v 0.075947 0.502101 -0.114778
v 0.132946 0.502420 -0.041304
v 0.116447 0.501802 0.079363
v -0.064850 0.501760 0.120694
v -0.122360 0.501106 0.066727
v -0.135733 0.501532 -0.026544
v 0.006360 0.501258 -0.138720
v -0.078569 0.619390 -0.193839
v -0.175124 0.641597 -0.124173
v -0.206048 0.623443 -0.039277
v -0.198825 0.624351 0.063099
v -0.073343 0.613319 0.193462
v 0.108807 0.607918 0.176173
v 0.198585 0.603903 0.060613
v 0.183281 0.603903 -0.097561
v 0.065059 0.615738 -0.201471
v -0.002871 0.670831 -0.222107
v -0.160843 0.630367 0.135379
v 0.158385 0.673424 0.157572
v 0.204619 0.670355 -0.087655
v 0.119466 0.673751 -0.188795
v 0.185233 0.767349 0.185409
v 0.223238 0.678290 0.035860
v 0.256050 0.766822 -0.048767
v -0.000610 0.783011 -0.263995
v -0.103552 0.765518 -0.238876
v -0.184105 0.767238 -0.185004
v -0.257023 0.767349 -0.051252
v -0.248909 0.769715 0.077748
v -0.198285 0.767873 0.168379
v -0.120187 0.765954 0.229958
v -0.025579 0.771627 0.259711
v 0.075247 0.764090 0.248057
v 0.249731 0.771627 0.075755
v 0.205355 0.764059 -0.162495
v 0.100002 0.768247 -0.241608
v -0.159095 0.879991 -0.002206
v -0.112213 0.890470 0.097447
v 0.128401 0.880356 0.090723
v 0.143088 0.881733 -0.070785
v -0.059001 0.948461 -0.027294
v -0.069378 0.948461 -0.021445
v -0.077088 0.948461 -0.014771
v -0.081837 0.948461 -0.007530
v -0.083440 0.948461 -0.000000
v -0.075792 0.948408 0.018016
v 0.059001 0.948461 0.027294
v 0.069378 0.948461 0.021445
v 0.077089 0.948461 0.014771
v 0.081837 0.948461 0.007530
v 0.083441 0.948461 -0.000000
v 0.075792 0.948410 -0.018016
v -0.009889 0.891864 0.141209
v -0.093472 0.890372 -0.112279
v 0.013985 0.891129 -0.141449
v 0.094596 0.912321 0.084963
v 0.111781 0.990974 -0.024724
v -0.080277 0.991389 -0.042021
v -0.121901 0.991197 0.000000
v -0.080277 0.991389 0.042021
v 0.012374 0.991558 0.055961
v 0.105409 0.991339 0.029024
v 0.012374 0.991558 -0.055961
v -0.075632 1.022523 0.017126
v 0.082810 1.022453 -0.000000
v 0.027824 1.023028 -0.038481
v 0.054213 1.035373 -0.065216
v -0.130204 1.035480 -0.027448
v -0.118896 1.035374 0.034716
v 0.014722 1.036528 0.066616
v 0.114548 1.037832 0.041790
v 0.140263 1.035451 -0.000000
v -0.137422 1.136973 0.030908
v -0.063887 1.138441 0.065638
v 0.148728 1.086196 -0.011862
v 0.025780 1.137707 -0.069006
v -0.084270 1.137272 -0.058780
v -0.148388 1.136068 -0.014255
v 0.094275 1.139202 0.052219
v 0.146362 1.139063 0.005875
v 0.114976 1.139210 -0.042367
v -0.073882 1.159228 0.009120
v 0.024279 1.159073 0.033937
v 0.073883 1.159228 -0.009120
v -0.103771 1.214687 -0.021912
v -0.057389 1.214587 0.045801
v 0.042314 1.215033 0.049865
v 0.113119 1.214673 0.012373
v 0.091513 1.214546 -0.031657
v -0.020437 1.215061 -0.054805
v -0.109924 1.214886 0.013870
v 0.000299 1.254576 -0.000000
v 0.190340 -0.831461 -0.333169
v 0.370177 -0.831458 -0.100995
v 0.349741 -0.831453 0.144868
v 0.218668 -0.831457 0.310266
v 0.043485 -0.831451 0.374129
v -0.136491 -0.831454 0.354190
v -0.286918 -0.831451 0.244012
v -0.370329 -0.831454 0.083290
v -0.351759 -0.831456 -0.145703
v -0.233801 -0.831451 -0.295298
v -0.064770 -0.831454 -0.374013
v 0.049165 0.333138 -0.158972
v 0.065468 0.472786 -0.150883
v -0.138419 0.914504 -0.010343
v 0.112557 0.914424 -0.065639
v 0.138419 0.914504 0.010343
v -0.069775 1.022521 -0.020674
v 0.027824 1.023028 0.038481
v -0.024278 1.159073 -0.033937
v 0.233023 0.834104 0.130289
v 0.096809 0.833757 0.245801
v 0.170579 0.833482 -0.206805
v -0.103015 0.834825 0.248701
v 0.259964 0.833757 -0.046995
v -0.242588 0.833875 0.104623
v -0.256540 0.833327 -0.077820
v -0.143579 0.833875 -0.221765
v -0.000000 0.834262 -0.263435
v -0.069342 -0.695220 -0.348603
v -0.081837 0.948461 -0.007530
v -0.069378 0.948461 -0.021445
v -0.002719 0.948751 -0.041868
v 0.081837 0.948461 0.007530
v 0.069378 0.948461 0.021445
v 0.002717 0.948763 0.041867
v -0.083440 0.948461 -0.000000
v -0.077088 0.948461 -0.014771
v -0.059001 0.948461 -0.027294
v 0.083441 0.948461 -0.000000
v 0.077089 0.948461 0.014771
v 0.059001 0.948461 0.027294
v 0.011723 0.502033 0.138449
v 0.023395 0.358981 -0.117611
v 0.045890 0.358981 -0.110787
v 0.066622 0.358981 -0.099706
v 0.084793 0.358981 -0.084793
v 0.099706 0.358981 -0.066621
v 0.110788 0.358981 -0.045890
v 0.117611 0.358981 -0.023394
v 0.119916 0.358981 0.000000
v 0.117611 0.358981 0.023394
v 0.110788 0.358981 0.045890
v 0.099706 0.358981 0.066621
v 0.084793 0.358981 0.084793
v 0.066622 0.358981 0.099706
v 0.045890 0.358981 0.110787
v 0.023395 0.358981 0.117611
v 0.000000 0.358981 0.119915
v -0.023394 0.358981 0.117611
v -0.045889 0.358981 0.110787
v -0.066621 0.358981 0.099706
v -0.084793 0.358981 0.084793
v -0.099706 0.358981 0.066621
v -0.110787 0.358981 0.045890
v -0.117611 0.358981 0.023394
v -0.119915 0.358981 0.000000
v -0.117611 0.358981 -0.023394
v -0.110787 0.358981 -0.045890
v -0.099706 0.358981 -0.066621
v -0.084793 0.358981 -0.084793
v -0.066621 0.358981 -0.099706
v -0.045889 0.358981 -0.110787
v -0.023394 0.358981 -0.117611
v 0.000000 0.358981 -0.119915
v 0.094683 -0.328581 -0.178346
v 0.185167 -0.329382 -0.077167
v 0.196057 -0.328637 0.038998
v 0.142355 -0.329188 0.140947
v 0.019365 -0.328949 0.201681
v -0.128537 -0.328581 0.155726
v -0.196422 -0.329757 0.040604
v -0.185450 -0.328780 -0.075278
v -0.112681 -0.329757 -0.165931
v -0.000000 -0.444264 -0.245407
v 0.047876 -0.444264 -0.240691
v 0.093913 -0.444264 -0.226726
v 0.136341 -0.444264 -0.204048
v 0.173529 -0.444264 -0.173529
v 0.204048 -0.444264 -0.136341
v 0.226726 -0.444264 -0.093913
v 0.240691 -0.444264 -0.047876
v 0.245407 -0.444264 -0.000000
v 0.240691 -0.444264 0.047876
v 0.226726 -0.444264 0.093913
v 0.204048 -0.444264 0.136341
v 0.173529 -0.444264 0.173529
v 0.136341 -0.444264 0.204048
v 0.093913 -0.444264 0.226726
v 0.047876 -0.444264 0.240691
v -0.000000 -0.444264 0.245407
v -0.047876 -0.444264 0.240691
v -0.093913 -0.444264 0.226726
v -0.136341 -0.444264 0.204048
v -0.173529 -0.444264 0.173529
v -0.204048 -0.444264 0.136341
v -0.226726 -0.444264 0.093913
v -0.240691 -0.444264 0.047876
v -0.245407 -0.444264 -0.000000
v -0.240691 -0.444264 -0.047876
v -0.226726 -0.444264 -0.093913
v -0.204048 -0.444264 -0.136341
v -0.173529 -0.444264 -0.173529
v -0.136341 -0.444264 -0.204048
v -0.093913 -0.444264 -0.226726
v -0.047876 -0.444264 -0.240691
v -0.015821 -0.156247 -0.135581
v 0.065443 -0.171416 -0.122440
v 0.140257 -0.200888 -0.042771
v 0.132854 -0.171416 0.040299
v 0.069312 -0.200888 0.129217
v -0.055758 -0.201548 0.137773
v -0.134255 -0.201237 0.055610
v -0.056330 -0.200758 -0.133723
vn 0.8095 -0.0625 0.5838
vn 0.4809 -0.3294 0.8125
vn 0.0891 0.0073 0.9960
vn 0.1379 -0.4095 0.9018
vn -0.4413 0.2482 -0.8624
vn -0.2424 0.5400 -0.8060
vn 0.0287 0.2161 -0.9760
vn -0.7469 0.2525 -0.6152
vn -0.5829 0.5395 -0.6076
vn -0.9300 0.2431 -0.2758
vn -0.7898 0.5409 -0.2893
vn -0.0436 0.5436 0.8382
vn -0.3092 0.2653 0.9132
vn 0.1047 0.2420 0.9646
vn 0.9600 0.2684 -0.0790
vn 0.8232 0.5426 0.1672
vn 0.9189 0.2694 0.2881
vn 0.8019 0.5430 -0.2493
vn 0.8127 0.2479 -0.5273
vn 0.5573 0.5398 -0.6309
vn 0.4700 0.2613 -0.8431
vn -0.1039 0.8200 -0.5628
vn -0.0000 1.0000 -0.0000
vn -0.0089 0.8188 -0.5739
vn -0.2269 0.8196 -0.5260
vn -0.3126 0.8173 -0.4840
vn -0.3981 0.8268 -0.3973
vn -0.4745 0.8218 -0.3154
vn -0.5195 0.8262 -0.2179
vn -0.5646 0.8189 -0.1032
vn -0.5721 0.8202 -0.0077
vn -0.5604 0.8195 0.1201
vn -0.5347 0.8182 0.2112
vn -0.4673 0.8261 0.3149
vn -0.4028 0.8242 0.3981
vn -0.3101 0.8272 0.4686
vn -0.2148 0.8154 0.5375
vn -0.1225 0.8225 0.5554
vn 0.0044 0.8293 0.5588
vn 0.1203 0.8154 0.5663
vn 0.2115 0.8202 0.5315
vn 0.3252 0.8199 0.4712
vn 0.3995 0.8194 0.4111
vn 0.4811 0.8194 0.3117
vn 0.5290 0.8171 0.2289
vn 0.5509 0.8273 0.1096
vn 0.5763 0.8172 -0.0089
vn 0.5636 0.8195 -0.1039
vn 0.5264 0.8194 -0.2269
vn 0.4869 0.8142 -0.3164
vn 0.3994 0.8285 -0.3926
vn 0.3065 0.8224 -0.4794
vn 0.2276 0.8140 -0.5344
vn 0.1131 0.8254 -0.5531
vn -0.7893 0.3522 -0.5029
vn -0.4223 0.6657 -0.6152
vn -0.4404 0.3538 -0.8251
vn -0.7061 0.6536 -0.2723
vn -0.9333 0.3439 0.1032
vn -0.4636 0.6747 0.5744
vn -0.6653 0.3509 0.6589
vn -0.1043 0.3449 0.9328
vn 0.0765 0.6764 0.7326
vn 0.4992 0.3522 0.7917
vn 0.5210 0.6736 0.5242
vn 0.8231 0.3526 0.4452
vn 0.9372 0.3485 -0.0122
vn 0.7298 0.6677 0.1465
vn 0.6702 0.6821 -0.2925
vn 0.7762 0.3519 -0.5231
vn 0.3605 0.6760 -0.6426
vn 0.4379 0.3437 -0.8307
vn -0.0035 0.3513 -0.9362
vn -0.4043 0.3574 -0.8419
vn -0.0743 0.6637 -0.7443
vn -0.6858 0.2180 -0.6943
vn -0.9537 0.2362 -0.1864
vn -0.7166 0.6753 0.1742
vn -0.8704 0.2948 0.3942
vn -0.3490 0.2921 0.8904
vn 0.4343 0.3046 0.8477
vn 0.9256 0.2377 0.2945
vn 0.8983 0.3044 -0.3170
vn -0.1399 0.2013 -0.9695
vn -0.7704 0.6280 -0.1101
vn -0.6467 0.6053 -0.4641
vn -0.9775 0.0569 0.2030
vn -0.0183 0.6344 0.7728
vn -0.2360 0.6758 0.6983
vn -0.7235 0.3636 0.5868
vn 0.4041 0.4875 0.7740
vn 0.4068 0.6941 0.5939
vn 0.8603 0.3584 0.3625
vn 0.6740 0.6869 -0.2718
vn 0.9919 0.1154 0.0529
vn 0.7292 0.5004 -0.4668
vn 0.4560 0.6160 -0.6424
vn 0.2649 0.6766 -0.6870
vn -0.0963 0.5730 -0.8139
vn 0.3033 -0.6804 -0.6671
vn 0.1136 -0.9740 -0.1958
vn 0.6560 -0.6996 -0.2832
vn 0.7136 -0.6687 0.2088
vn 0.2034 -0.9728 0.1106
vn 0.4467 -0.6903 0.5692
vn 0.0403 -0.9731 0.2268
vn -0.0022 -0.6860 0.7276
vn -0.4580 -0.6968 0.5520
vn -0.1559 -0.9742 0.1632
vn -0.7167 -0.6931 0.0764
vn -0.2268 -0.9738 -0.0146
vn -0.5608 -0.6874 -0.4615
vn -0.2134 -0.4030 -0.8900
vn -0.0869 -0.4087 -0.9085
vn 0.4231 -0.2984 -0.8555
vn 0.9405 -0.2196 -0.2595
vn 0.8249 -0.2685 0.4975
vn 0.4824 -0.5783 0.6579
vn 0.2147 0.0193 0.9765
vn -0.1880 -0.6162 0.7648
vn -0.6516 -0.1916 0.7340
vn -0.9759 -0.1354 -0.1710
vn -0.7391 -0.4483 -0.5027
vn -0.5925 -0.2460 -0.7671
vn -0.0451 0.9580 -0.2833
vn -0.0089 0.9544 -0.2985
vn -0.1018 0.9642 -0.2449
vn -0.1701 0.9573 -0.2338
vn -0.2175 0.9497 -0.2251
vn -0.2204 0.9623 -0.1591
vn -0.2340 0.9674 -0.0964
vn -0.2724 0.9612 -0.0431
vn -0.3155 0.9489 0.0032
vn -0.2841 0.9577 0.0452
vn -0.2452 0.9641 0.1017
vn -0.2336 0.9574 0.1698
vn -0.2179 0.9545 0.2038
vn -0.1501 0.9649 0.2153
vn -0.0956 0.9647 0.2452
vn -0.0451 0.9512 0.3052
vn -0.0159 0.9522 0.3051
vn 0.0464 0.9651 0.2578
vn 0.1067 0.9644 0.2419
vn 0.1888 0.9493 0.2514
vn 0.2204 0.9450 0.2417
vn 0.2149 0.9642 0.1556
vn 0.2265 0.9695 0.0938
vn 0.2620 0.9642 0.0419
vn 0.3250 0.9456 -0.0141
vn 0.3077 0.9504 -0.0441
vn 0.2452 0.9647 -0.0956
vn 0.2153 0.9649 -0.1501
vn 0.2061 0.9514 -0.2289
vn 0.1840 0.9516 -0.2461
vn 0.1050 0.9650 -0.2402
vn 0.0458 0.9647 -0.2593
vn -0.4500 -0.0872 -0.8887
vn -0.0104 -0.0419 -0.9991
vn 0.3809 -0.0916 -0.9201
vn -0.9799 -0.0803 -0.1826
vn -0.6777 -0.0044 -0.7354
vn -0.9062 0.0091 0.4227
vn -0.7714 -0.0911 0.6298
vn -0.4829 0.0510 0.8742
vn -0.2646 -0.0983 0.9593
vn 0.4255 -0.0560 0.9032
vn 0.9604 -0.0644 0.2711
vn 0.9108 -0.1103 -0.3979
vn 0.9651 0.0207 -0.2609
vn 0.8787 -0.3985 0.2626
vn -0.3397 -0.4283 -0.8374
vn 0.2837 -0.3573 -0.8899
vn 0.5170 -0.3444 -0.7837
vn 0.8099 -0.3939 -0.4346
vn 0.0112 -0.3424 -0.9395
vn 0.6730 -0.3394 0.6571
vn 0.8730 -0.3302 -0.3589
vn 0.7849 -0.1887 -0.5901
vn 0.9628 -0.2041 -0.1770
vn -0.7391 -0.4033 -0.5395
vn -0.7293 -0.1550 -0.6664
vn 0.3631 -0.1663 -0.9168
vn 0.2932 -0.2048 0.9339
vn -0.0653 -0.1137 0.9914
vn -0.3341 -0.4349 0.8362
vn -0.9671 -0.1884 -0.1710
vn -0.3383 0.4701 0.8152
vn -0.4743 -0.2207 0.8523
vn -0.8447 0.4660 -0.2634
vn -0.4748 0.4978 -0.7258
vn 0.5589 0.4742 -0.6802
vn 0.8527 0.5023 -0.1435
vn -0.3631 -0.1762 -0.9150
vn 0.6849 -0.1747 0.7074
vn 0.3204 0.4947 0.8078
vn 0.9490 -0.1693 0.2660
vn 0.7648 0.4893 0.4191
vn 0.4379 0.8362 0.3302
vn 0.0016 0.5175 -0.8557
vn 0.0480 0.8910 -0.4515
vn 0.4932 0.8314 -0.2561
vn -0.8014 0.4918 0.3404
vn -0.3454 0.8763 0.3360
vn -0.5924 0.8056 -0.0081
vn -0.3470 0.9365 0.0500
vn -0.6356 0.2494 0.7306
vn -0.9908 0.1357 -0.0000
vn -0.2503 0.9354 -0.2497
vn -0.3362 0.2309 -0.9130
vn -0.3308 0.3084 -0.8919
vn -0.2682 0.9553 -0.1248
vn -0.2032 0.9486 -0.2428
vn 0.3470 0.9365 -0.0500
vn 0.5935 0.3095 -0.7429
vn 0.9908 0.1357 -0.0000
vn 0.2291 0.9570 0.1781
vn 0.2316 0.9355 0.2668
vn 0.7596 0.0482 0.6486
vn 0.2682 0.9553 0.1248
vn 0.1490 0.9673 0.2054
vn -0.7149 -0.6100 -0.3418
vn -0.9962 0.0869 -0.0068
vn -0.6329 -0.4928 -0.5971
vn -0.5098 -0.4737 -0.7181
vn -0.4753 0.0928 -0.8749
vn -0.7408 -0.6667 0.0818
vn 0.0060 0.3742 -0.9273
vn 0.0699 0.0704 -0.9951
vn 0.8564 0.0800 -0.5100
vn 0.7665 -0.5698 0.2962
vn 0.7867 0.0963 0.6097
vn 0.6050 -0.5807 0.5448
vn 0.4697 -0.5207 0.7129
vn -0.0138 0.3754 0.9267
vn 0.0525 0.0800 0.9954
vn -0.4573 0.0872 0.8850
vn -0.6092 -0.3548 0.7092
vn -0.2142 -0.9610 0.1751
vn -0.2191 -0.9683 -0.1197
vn -0.4822 -0.2646 -0.8352
vn -0.8091 -0.2040 -0.5511
vn -0.3147 0.4713 -0.8239
vn 0.2091 -0.1145 -0.9712
vn -0.7056 -0.1728 0.6872
vn -0.1946 0.4798 0.8555
vn -0.7129 0.4666 0.5235
vn 0.0800 0.4873 -0.8696
vn 0.4922 0.5221 -0.6965
vn 0.9563 -0.1136 -0.2693
vn 0.5043 -0.5361 0.6770
vn 0.9768 0.1041 0.1869
vn 0.3950 0.0325 0.9181
vn 0.0193 -0.5127 0.8584
vn 0.1510 0.3628 0.9195
vn 0.2520 0.2896 0.9234
vn -0.3128 0.2585 0.9140
vn -0.7260 0.6339 0.2668
vn -0.8979 0.2613 0.3541
vn -0.7897 0.2444 -0.5627
vn -0.1381 0.3998 -0.9061
vn 0.6824 0.6584 -0.3175
vn 0.6136 0.2739 -0.7406
vn 0.9303 0.2313 0.2848
vn -0.0765 0.2689 -0.9601
vn 0.0067 1.0000 0.0009
vn -0.5452 -0.6981 0.4641
vn 0.4272 -0.6872 0.5876
vn 0.0899 -0.6936 0.7148
vn -0.1024 -0.6668 -0.7382
vn 0.1575 0.2141 -0.9640
vn 0.3789 -0.6587 -0.6500
vn 0.7236 -0.6574 -0.2103
vn 0.9746 0.2217 0.0315
vn 0.6779 -0.6829 0.2723
vn -0.6213 0.2191 0.7523
vn -0.2601 -0.6848 0.6808
vn -0.8677 0.2190 0.4463
vn -0.7170 -0.6781 0.1613
vn -0.9783 0.2068 -0.0125
vn -0.6990 -0.6653 -0.2624
vn -0.8094 0.2279 -0.5413
vn -0.4629 -0.6761 -0.5733
vn -0.3892 0.2325 -0.8913
vn -0.1760 0.1882 -0.9662
vn 0.3711 0.1846 -0.9100
vn 0.9560 0.1945 -0.2198
vn 0.7431 0.1936 -0.6406
vn 0.6962 0.1788 0.6952
vn 0.4605 0.2443 0.8534
vn 0.2822 0.1823 0.9419
vn -0.1807 0.1955 0.9639
vn -0.8824 0.1998 -0.4259
vn -0.9772 0.2125 -0.0025
vn -0.6245 0.1499 -0.7665
vn 0.0011 -0.2852 -0.9585
vn 0.2111 -0.2190 -0.9526
vn 0.3533 -0.2393 -0.9044
vn 0.5580 -0.2344 -0.7960
vn 0.6717 -0.2218 -0.7068
vn 0.7981 -0.2851 -0.5308
vn 0.9200 -0.1916 -0.3420
vn 0.9576 -0.2882 -0.0000
vn 0.9531 -0.1989 -0.2282
vn 0.9517 -0.2197 0.2145
vn 0.7962 -0.2393 0.5557
vn 0.9062 -0.2344 0.3519
vn 0.5334 -0.2852 0.7963
vn 0.7048 -0.2190 0.6748
vn 0.3404 -0.2001 0.9188
vn 0.0215 -0.2951 0.9552
vn 0.2213 -0.1569 0.9625
vn -0.2049 -0.3003 0.9316
vn -0.4079 -0.1618 0.8986
vn -0.6787 -0.2822 0.6780
vn -0.5133 -0.1947 0.8358
vn -0.8369 -0.1902 0.5132
vn -0.9311 -0.3025 0.2038
vn -0.8975 -0.1627 0.4099
vn -0.9560 -0.2926 -0.0226
vn -0.9632 -0.1547 -0.2196
vn -0.7962 -0.2849 -0.5338
vn -0.9182 -0.2021 -0.3406
vn -0.6750 -0.2178 -0.7050
vn -0.5560 -0.2386 -0.7962
vn -0.3522 -0.2353 -0.9059
vn -0.2138 -0.2206 -0.9517
vn 0.8901 0.0585 -0.4520
vn -0.6957 0.1004 0.7113
vn -0.0770 0.0938 0.9926
vn -0.9479 0.0658 0.3116
vn -0.3586 0.4003 -0.8433
vn 0.2795 0.2038 -0.9383
vn 0.4066 0.3314 -0.8514
vn 0.9057 0.1911 0.3784
vn 0.5722 0.4758 0.6680
vn 0.9355 0.3339 0.1151
vn 0.2811 0.1828 0.9421
vn -0.0835 0.4063 0.9099
vn -0.4625 0.1662 0.8709
vn -0.7521 0.3850 0.5349
vn -0.8906 0.1849 -0.4156
vn -0.9109 0.3519 -0.2153
vn 0.1715 0.0656 -0.9830
vn 0.4961 -0.4586 -0.7373
vn 0.3669 -0.0170 -0.9301
vn 0.5559 -0.0473 -0.8299
vn 0.7204 -0.0085 -0.6935
vn 0.8346 0.0494 -0.5486
vn 0.8746 -0.4504 -0.1793
vn 0.9808 -0.0123 -0.1948
vn 0.9169 0.0203 -0.3985
vn 0.9996 0.0221 0.0178
vn 0.9830 0.0346 0.1806
vn 0.7758 -0.4322 0.4597
vn 0.9275 -0.0170 0.3735
vn 0.8266 -0.0198 0.5625
vn 0.6885 0.0450 0.7239
vn 0.2379 -0.4647 0.8529
vn 0.3920 -0.0163 0.9198
vn 0.5741 0.0498 0.8173
vn 0.1871 -0.0203 0.9821
vn -0.0178 0.0324 0.9993
vn -0.3485 -0.4514 0.8215
vn -0.3818 -0.0108 0.9242
vn -0.1770 0.0261 0.9839
vn -0.5693 0.0193 0.8219
vn -0.8165 -0.4359 0.3786
vn -0.8258 -0.0168 0.5636
vn -0.6972 0.0325 0.7162
vn -0.9268 -0.0197 0.3749
vn -0.9844 0.0442 0.1706
vn -0.8159 -0.4451 -0.3690
vn -0.9840 -0.0117 -0.1777
vn -0.9978 0.0638 0.0184
vn -0.9228 -0.0450 -0.3826
vn -0.8211 -0.0092 -0.5707
vn -0.6935 0.0654 -0.7175
vn -0.5754 0.0430 -0.8168
vn -0.2462 -0.4441 -0.8615
vn -0.3900 -0.0203 -0.9206
vn -0.1851 -0.0163 -0.9826
vn 0.0263 0.0545 -0.9982
vn -0.7282 0.6778 -0.1015
vn 0.4639 0.7485 -0.4739
vn 0.8535 0.5135 0.0885
vn 0.3692 0.7370 0.5661
vn -0.0097 0.8930 0.4499
vn 0.9111 -0.4105 -0.0363
vn 0.1515 -0.3541 0.9229
vn 0.1189 -0.3664 -0.9228
vn 0.2601 0.9647 0.0400
vn -0.8435 0.4596 -0.2780
vn 0.6364 0.2261 -0.7375
vn 0.8485 0.1957 -0.4918
vn 0.9413 0.1815 0.2846
vn 0.8434 0.2371 0.4822
vn 0.5173 0.2420 0.8209
vn 0.0888 0.2366 0.9675
vn -0.2898 0.2359 0.9276
vn -0.2860 0.8774 -0.3852
vn -0.4704 0.6770 -0.5660
vn -0.1546 0.7220 -0.6744
vn 0.5817 0.0848 0.8090
vn -0.8365 0.5419 0.0808
vn 0.5061 0.2217 -0.8335
vn 0.6134 0.0299 -0.7892
vn 0.1478 0.5446 -0.8256
vn -0.8559 0.2611 0.4463
vn -0.7179 0.5433 0.4352
vn -0.6161 0.2709 0.7396
vn -0.4666 0.5542 0.6893
vn 0.3857 0.5438 0.7453
vn 0.7613 0.2699 0.5896
vn 0.6556 0.5407 0.5272
vn -0.0386 -0.9732 -0.2266
vn 0.2233 -0.9728 -0.0613
vn -0.1591 -0.6715 -0.7238
vn -0.1628 -0.9733 -0.1620
vn 0.7132 -0.5123 -0.4785
vn 0.5344 -0.3008 -0.7899
vn -0.9754 0.1144 -0.1884
vn -0.6903 -0.4078 0.5976
vn -0.8898 -0.4259 -0.1641
vn -0.8720 -0.4147 0.2602
vn 0.9313 -0.3345 0.1442
vn -0.0090 -0.1511 -0.9885
vn -0.7479 -0.1295 0.6510
vn -0.9525 -0.1692 0.2532
vn 0.8085 -0.5878 -0.0303
vn 0.1103 -0.9340 -0.3398
vn 0.7984 -0.5981 -0.0695
vn -0.6137 0.2088 0.7614
vn -0.8716 0.1850 0.4540
vn -0.9551 0.2727 0.1157
vn 0.8570 0.2390 -0.4566
vn 0.8180 0.3636 -0.4457
vn -0.9283 0.2032 0.3113
vn -0.3744 0.2817 -0.8834
vn 0.1866 0.9317 0.3117
vt 0.649373 0.889677
vt 0.583967 0.889677
vt 0.513402 0.889677
vt 0.518505 0.889677
vt 0.076963 0.541674
vt 0.047455 0.565938
vt 0.015188 0.541674
vt 0.139463 0.541674
vt 0.116144 0.567494
vt 0.201963 0.541674
vt 0.192016 0.565206
vt 0.489708 0.567169
vt 0.453125 0.541674
vt 0.516787 0.541674
vt 0.765625 0.541674
vt 0.720918 0.565699
vt 0.703125 0.541674
vt 0.797807 0.565889
vt 0.844281 0.541674
vt 0.884819 0.566012
vt 0.921508 0.541674
vt 0.031250 0.603265
vt 0.000000 0.603265
vt 0.062500 0.603265
vt 0.093750 0.603265
vt 0.062500 0.603265
vt 0.125000 0.603265
vt 0.093750 0.603265
vt 0.156250 0.603265
vt 0.187500 0.603265
vt 0.156250 0.603265
vt 0.218750 0.603265
vt 0.250000 0.603265
vt 0.281250 0.603265
vt 0.312500 0.603265
vt 0.343750 0.603265
vt 0.375000 0.603265
vt 0.343750 0.603265
vt 0.406250 0.603265
vt 0.437500 0.603265
vt 0.406250 0.603265
vt 0.468750 0.603265
vt 0.437500 0.603265
vt 0.500000 0.603265
vt 0.531250 0.603265
vt 0.562500 0.603265
vt 0.593750 0.603265
vt 0.562500 0.603265
vt 0.625000 0.603265
vt 0.656250 0.603265
vt 0.687500 0.603265
vt 0.656250 0.603265
vt 0.718750 0.603265
vt 0.750000 0.603265
vt 0.781250 0.603265
vt 0.812500 0.603265
vt 0.781250 0.603265
vt 0.843750 0.603265
vt 0.812500 0.603265
vt 0.875000 0.603265
vt 0.843750 0.603265
vt 0.906250 0.603265
vt 0.937500 0.603265
vt 0.906250 0.603265
vt 0.968750 0.603265
vt 0.937500 0.603265
vt 1.000000 0.603265
vt 0.157295 0.619832
vt 0.094851 0.637887
vt 0.078684 0.619832
vt 0.188554 0.637887
vt 0.267416 0.619832
vt 0.390166 0.637887
vt 0.375305 0.619832
vt 0.483443 0.619832
vt 0.515224 0.637887
vt 0.593035 0.619833
vt 0.625890 0.637887
vt 0.671043 0.619833
vt 0.749891 0.619832
vt 0.718826 0.637887
vt 0.812743 0.637887
vt 0.845197 0.619833
vt 0.922325 0.637887
vt 0.922707 0.619832
vt 0.984098 0.619833
vt 0.063362 0.676987
vt 0.015863 0.637887
vt 0.136383 0.689681
vt 0.214915 0.684902
vt 0.282355 0.637887
vt 0.312408 0.676987
vt 0.438500 0.676987
vt 0.578362 0.676987
vt 0.695368 0.686613
vt 0.797112 0.676987
vt 1.000000 0.637887
vt 0.990788 0.692828
vt 0.234382 0.809393
vt 0.145196 0.802335
vt 0.268450 0.802335
vt 0.479831 0.802335
vt 0.456740 0.809393
vt 0.365070 0.804553
vt 0.589847 0.802335
vt 0.597373 0.809393
vt 0.682192 0.804848
vt 0.813623 0.809393
vt 0.748139 0.802335
vt 0.829136 0.802335
vt 0.910153 0.802335
vt 0.935590 0.809393
vt 0.985857 0.802335
vt 0.937332 0.794136
vt 0.917595 0.797990
vt 0.810614 0.794136
vt 0.702203 0.794136
vt 0.671856 0.797990
vt 0.609299 0.794136
vt 0.530946 0.797990
vt 0.501110 0.794136
vt 0.390544 0.794136
vt 0.375049 0.797990
vt 0.264080 0.794136
vt 0.238659 0.797990
vt 0.139152 0.794136
vt 1.000000 0.797990
vt 0.792480 0.797990
vt 0.124949 0.797990
vt 0.031250 0.843377
vt 0.000000 0.843377
vt 0.062500 0.843377
vt 0.031250 0.843377
vt 0.093750 0.843377
vt 0.125000 0.843377
vt 0.156250 0.843377
vt 0.125000 0.843377
vt 0.187500 0.843377
vt 0.218750 0.843377
vt 0.187500 0.843377
vt 0.250000 0.843377
vt 0.281250 0.843377
vt 0.312500 0.843377
vt 0.281250 0.843377
vt 0.343750 0.843377
vt 0.312500 0.843377
vt 0.375000 0.843377
vt 0.406250 0.843377
vt 0.437500 0.843377
vt 0.468750 0.843377
vt 0.500000 0.843377
vt 0.468750 0.843377
vt 0.531250 0.843377
vt 0.562500 0.843377
vt 0.593750 0.843377
vt 0.562500 0.843377
vt 0.625000 0.843377
vt 0.656250 0.843377
vt 0.625000 0.843377
vt 0.687500 0.843377
vt 0.656250 0.843377
vt 0.718750 0.843377
vt 0.687500 0.843377
vt 0.750000 0.843377
vt 0.781250 0.843377
vt 0.750000 0.843377
vt 0.812500 0.843377
vt 0.843750 0.843377
vt 0.875000 0.843377
vt 0.906250 0.843377
vt 0.937500 0.843377
vt 0.906250 0.843377
vt 0.968750 0.843377
vt 1.000000 0.843376
vt 0.075601 0.880244
vt 0.015428 0.889677
vt 0.000000 0.880244
vt 0.219158 0.880244
vt 0.111431 0.889677
vt 0.330007 0.889677
vt 0.360980 0.880244
vt 0.421180 0.889677
vt 0.453979 0.880244
vt 0.564858 0.880244
vt 0.703125 0.880244
vt 0.810399 0.880244
vt 0.797964 0.889677
vt 0.701938 0.889677
vt 0.062003 0.889677
vt 0.000000 0.889677
vt 0.950263 0.889677
vt 0.910135 0.889677
vt 0.829090 0.889677
vt 0.011085 0.889677
vt 0.625431 0.889677
vt 0.814216 0.889677
vt 0.853783 0.889677
vt 0.777869 0.889677
vt 0.150042 0.889677
vt 0.126816 0.889677
vt 0.933589 0.889677
vt 0.546875 0.889677
vt 0.484375 0.889677
vt 0.441803 0.889677
vt 0.214606 0.889677
vt 0.437780 0.889677
vt 0.422321 0.889677
vt 0.203151 0.889677
vt 0.091521 0.889677
vt 0.890196 0.889677
vt 0.778535 0.889677
vt 0.067292 0.889677
vt 0.624989 0.889677
vt 0.559785 0.889677
vt 0.703125 0.889677
vt 0.668789 0.889677
vt 0.652288 0.889677
vt 0.989637 0.889677
vt 0.975848 0.889677
vt 0.823536 0.889677
vt 0.314728 0.889677
vt 0.374040 0.889677
vt 0.248164 0.889677
vt 0.250000 0.889677
vt 0.318571 0.889677
vt 0.250000 0.889677
vt 0.187500 0.889677
vt 0.218750 0.889677
vt 0.187500 0.889677
vt 0.125143 0.889677
vt 0.156250 0.889677
vt 0.125000 0.889677
vt 0.218750 0.889677
vt 0.750000 0.889677
vt 0.818566 0.889677
vt 0.687500 0.889677
vt 0.718750 0.889677
vt 0.625000 0.889677
vt 0.656250 0.889677
vt 0.625000 0.889677
vt 0.718750 0.889677
vt 0.251168 0.889677
vt 0.121221 0.889677
vt 0.030560 0.889677
vt 0.948165 0.889677
vt 0.974553 0.889677
vt 0.808438 0.889677
vt 0.675742 0.889677
vt 0.502486 0.889677
vt 0.517259 0.889677
vt 0.378779 0.889677
vt 0.309785 0.889677
vt 0.330116 0.889677
vt 0.195029 0.889677
vt 0.168818 0.889677
vt 0.112533 0.889677
vt 0.024271 0.889677
vt 0.449624 0.889677
vt 0.339497 0.889677
vt 0.974967 0.889677
vt 0.851475 0.889677
vt 0.921432 0.889677
vt 0.773522 0.889677
vt 0.626412 0.889677
vt 0.738571 0.889677
vt 0.615151 0.889677
vt 0.497762 0.889677
vt 0.559150 0.889677
vt 0.571331 0.889677
vt 0.413763 0.889677
vt 0.273855 0.889677
vt 0.287827 0.889677
vt 0.201715 0.889677
vt 0.072678 0.889677
vt 0.773855 0.889677
vt 0.846992 0.889677
vt 0.725501 0.889677
vt 0.988550 0.889677
vt 0.591005 0.889677
vt 0.568052 0.095211
vt 0.886627 0.056574
vt 0.777617 0.012720
vt 1.000000 0.500000
vt 0.969657 0.515067
vt 0.917331 0.500000
vt 0.792583 0.500000
vt 0.749107 0.515067
vt 0.687581 0.500000
vt 0.389378 0.515067
vt 0.362183 0.500000
vt 0.441598 0.500000
vt 0.327358 0.515067
vt 0.285153 0.500000
vt 0.250720 0.515067
vt 0.187383 0.500000
vt 0.157961 0.515067
vt 0.106567 0.500000
vt 0.063310 0.515067
vt 0.027345 0.500000
vt 1.000000 0.527517
vt 0.989068 0.541674
vt 0.937589 0.527517
vt 0.781497 0.527517
vt 0.859611 0.527517
vt 0.623933 0.527517
vt 0.578125 0.541674
vt 0.545401 0.527517
vt 0.468667 0.527517
vt 0.172111 0.527517
vt 0.250445 0.527517
vt 0.109611 0.527517
vt 0.031364 0.527517
vt 0.011012 0.619832
vt 0.828084 0.716012
vt 0.376038 0.716011
vt 0.483539 0.716011
vt 0.282352 0.716012
vt 1.000000 0.825645
vt 0.952252 0.835045
vt 0.936862 0.825645
vt 0.687267 0.835045
vt 0.609354 0.825645
vt 0.718112 0.825645
vt 0.545055 0.835045
vt 0.485168 0.825645
vt 0.421385 0.835045
vt 0.347272 0.825645
vt 0.186351 0.835045
vt 0.061566 0.825645
vt 0.205420 0.825645
vt 0.908011 0.869726
vt 0.781784 0.869726
vt 0.670588 0.869726
vt 0.545020 0.869726
vt 0.435985 0.869726
vt 0.326776 0.869726
vt 0.188307 0.869726
vt 0.048737 0.869726
vt 0.935142 0.880244
vt 1.000000 0.869726
vt 0.235783 0.889677
vt 0.849286 0.889677
vt 0.735783 0.889677
vt 0.617821 0.889677
vt 0.499428 0.889677
vt 0.748473 0.889677
vt 0.559850 0.889677
vt 0.926447 0.889677
vt 0.024338 0.889677
vt 0.236264 0.889677
vt 0.891871 0.515067
vt 0.828601 0.515067
vt 0.703125 0.527517
vt 0.670629 0.515067
vt 0.592036 0.515067
vt 0.514379 0.515067
vt 0.451879 0.515067
vt 0.000000 0.515067
vt 0.108509 0.889677
vt 0.121895 0.809393
vt 0.029340 0.809393
vt 0.608350 0.716011
vt 0.265925 0.565936
vt 0.914118 0.686613
vt 0.919023 0.889677
vt 0.000000 0.567017
vt 0.327763 0.541674
vt 0.333902 0.567150
vt 0.390188 0.541674
vt 0.399148 0.565607
vt 0.578125 0.564893
vt 0.640625 0.541674
vt 0.640625 0.567215
vt 0.979375 0.567017
vt 0.013003 0.692828
vt 0.026510 0.802335
vt 1.000000 0.809393
vt 0.031157 0.794136
vt 0.027514 0.797990
vt 0.227836 0.889677
vt 0.359036 0.889677
vt 0.990528 0.889677
vt 0.222524 0.889677
vt 0.296700 0.889677
vt 0.724335 0.889677
vt 0.986150 0.889677
vt 0.009822 0.889677
vt 0.360850 0.889677
vt 0.297278 0.889677
vt 0.991205 0.889677
vt 0.015625 0.889677
vt 0.014926 0.889677
vt 0.016715 0.889677
vt 0.748526 0.889677
vt 0.014556 0.889677
vt 0.975911 0.889677
vt 0.051990 0.889677
vt 0.975633 0.311780
vt 0.601746 0.437311
vt 0.866345 0.453380
vt 0.355851 0.889677
vt 0.709554 0.483326
vt 0.968941 0.159443
vt 0.665078 0.028937
vt 0.518620 0.198013
vt 0.531493 0.340699
vt 0.597847 0.500000
vt 0.518432 0.500000
vt 0.391177 0.527517
vt 0.328125 0.527517
vt 0.264463 0.541674
vt 1.000000 0.794136
vt 0.828629 0.835045
vt 0.827467 0.825645
vt 0.312230 0.835045
vt 0.061836 0.835045
vt 0.000000 0.835045
s 1
f 205/1/1 215/2/2 336/3/3
f 336/3/3 215/2/2 2/4/4
f 42/5/5 87/6/6 28/7/7
f 41/8/8 45/9/9 42/5/5
f 40/10/10 86/11/11 41/8/8
f 83/12/12 36/13/13 35/14/14
f 31/15/15 80/16/16 32/17/17
f 79/18/18 31/15/15 30/19/19
f 78/20/20 30/19/19 29/21/21
f 409/22/22 46/23/23 378/23/24
f 408/24/25 77/22/23 409/22/22
f 407/25/26 76/26/23 408/24/25
f 406/27/27 75/28/23 407/25/26
f 405/29/28 74/27/23 406/27/27
f 404/30/29 73/31/23 405/29/28
f 403/32/30 72/30/23 404/30/29
f 402/33/31 71/32/23 403/32/30
f 401/34/32 70/33/23 402/33/31
f 400/35/33 69/34/23 401/34/32
f 399/36/34 68/35/23 400/35/33
f 398/37/35 67/38/23 399/36/34
f 397/39/36 66/37/23 398/37/35
f 396/40/37 65/41/23 397/39/36
f 395/42/38 64/43/23 396/40/37
f 394/44/39 63/42/23 395/42/38
f 393/45/40 62/44/23 394/44/39
f 392/46/41 61/45/23 393/45/40
f 391/47/42 60/48/23 392/46/41
f 390/49/43 59/47/23 391/47/42
f 389/50/44 58/49/23 390/49/43
f 388/51/45 57/52/23 389/50/44
f 387/53/46 56/51/23 388/51/45
f 386/54/47 55/53/23 387/53/46
f 385/55/48 54/54/23 386/54/47
f 384/56/49 53/57/23 385/55/48
f 383/58/50 52/59/23 384/56/49
f 382/60/51 51/61/23 383/58/50
f 381/62/52 50/60/23 382/60/51
f 380/63/53 49/64/23 381/62/52
f 379/65/54 48/66/23 380/63/53
f 378/67/24 47/65/23 379/65/54
f 97/68/55 377/69/56 98/70/57
f 376/71/58 97/68/55 96/72/59
f 374/73/60 95/74/61 94/75/62
f 373/76/63 94/75/62 93/77/64
f 372/78/65 93/77/64 92/79/66
f 91/80/67 371/81/68 92/79/66
f 370/82/69 91/80/67 90/83/70
f 369/84/71 90/83/70 89/85/72
f 88/86/73 369/84/71 89/85/72
f 417/87/74 99/88/75 377/69/56
f 115/89/76 377/69/56 376/71/58
f 114/90/77 376/71/58 375/91/78
f 416/92/79 375/91/78 374/73/60
f 373/76/63 415/93/80 374/73/60
f 414/94/81 373/76/63 372/78/65
f 413/95/82 372/78/65 371/81/68
f 370/82/69 412/96/83 371/81/68
f 99/97/75 410/98/84 369/84/71
f 122/99/85 139/100/86 138/101/87
f 137/102/88 120/103/89 121/104/90
f 136/105/91 119/106/92 137/102/88
f 118/107/93 119/106/92 136/105/91
f 117/108/94 135/109/95 134/110/96
f 117/108/94 134/110/96 133/111/97
f 116/112/98 133/111/97 140/113/99
f 100/114/100 125/115/101 101/116/102
f 102/117/103 127/118/104 103/119/105
f 103/119/105 128/120/106 104/121/107
f 105/122/108 129/123/109 106/124/110
f 106/124/110 130/125/111 107/126/112
f 132/127/113 140/113/114 125/115/115
f 126/128/116 135/109/95 127/118/117
f 136/105/118 128/120/119 127/118/117
f 128/120/119 137/102/120 129/123/121
f 138/101/87 130/125/122 129/123/121
f 139/100/123 131/129/124 130/125/122
f 367/130/125 156/131/23 368/131/126
f 366/132/127 187/133/23 367/130/125
f 365/134/128 186/132/23 366/132/127
f 364/135/129 185/134/23 365/134/128
f 363/136/130 184/137/23 364/135/129
f 362/138/131 183/136/23 363/136/130
f 361/139/132 182/140/23 362/138/131
f 360/141/133 181/139/23 361/139/132
f 359/142/134 180/141/23 360/141/133
f 358/143/135 179/144/23 359/142/134
f 357/145/136 178/146/23 358/143/135
f 356/147/137 177/145/23 357/145/136
f 355/148/138 176/147/23 356/147/137
f 354/149/139 175/148/23 355/148/138
f 353/150/140 174/149/23 354/149/139
f 352/151/141 173/152/23 353/150/140
f 351/153/142 172/151/23 352/151/141
f 350/154/143 171/153/23 351/153/142
f 349/155/144 170/156/23 350/154/143
f 348/157/145 169/155/23 349/155/144
f 347/158/146 168/159/23 348/157/145
f 346/160/147 167/161/23 347/158/146
f 345/162/148 166/163/23 346/160/147
f 344/164/149 165/162/23 345/162/148
f 343/165/150 164/166/23 344/164/149
f 342/167/151 163/165/23 343/165/150
f 341/168/152 162/167/23 342/167/151
f 340/169/153 161/168/23 341/168/152
f 339/170/154 160/169/23 340/169/153
f 338/171/155 159/172/23 339/170/154
f 337/173/156 158/171/23 338/171/155
f 368/174/126 157/173/23 337/173/156
f 202/175/157 209/176/158 307/177/159
f 201/178/160 1/179/161 202/175/157
f 207/180/162 201/178/160 200/181/163
f 206/182/164 200/181/163 199/183/165
f 336/3/3 199/183/165 198/184/166
f 205/1/1 198/184/166 197/185/167
f 196/186/168 204/187/169 197/185/167
f 216/188/170 215/2/2 205/1/1
f 209/176/158 210/189/171 218/190/172
f 218/191/172 223/192/173 217/193/174
f 210/189/171 219/194/175 218/190/172
f 216/188/170 221/195/176 215/2/2
f 222/196/177 237/197/178 226/198/179
f 211/199/180 229/200/181 210/189/171
f 223/192/173 238/201/182 237/197/178
f 2/4/4 235/202/183 234/203/184
f 2/4/4 234/203/184 214/204/185
f 230/205/186 229/200/181 211/199/180
f 234/203/184 317/206/187 233/207/188
f 229/200/181 320/208/189 321/209/190
f 238/201/182 316/210/191 237/197/178
f 230/205/186 320/208/189 229/200/181
f 237/197/178 316/210/191 318/211/192
f 229/200/181 321/209/190 228/212/193
f 224/213/194 315/214/195 235/202/183
f 236/215/196 314/216/197 224/213/194
f 224/213/194 314/216/197 315/214/195
f 314/216/197 241/217/198 315/214/195
f 322/218/199 257/219/200 316/210/191
f 316/210/191 242/220/201 318/211/192
f 319/221/202 240/222/203 239/223/204
f 319/221/202 239/223/204 320/208/189
f 317/206/187 240/222/203 319/221/202
f 330/224/205 248/225/206 247/226/207
f 331/227/208 246/228/23 245/229/23
f 332/230/209 244/231/23 243/232/210
f 324/233/211 247/226/207 246/228/23
f 325/231/212 245/229/23 244/231/23
f 333/234/213 254/235/214 253/234/215
f 334/236/216 252/237/23 251/236/23
f 335/238/217 250/239/23 249/240/218
f 327/241/219 253/234/215 252/237/23
f 328/239/220 251/236/23 250/239/23
f 246/228/221 261/242/222 245/229/223
f 244/231/224 260/243/225 243/232/210
f 247/226/226 261/242/222 246/228/221
f 243/232/210 260/243/225 326/244/227
f 326/245/227 265/246/228 259/247/229
f 252/237/230 264/248/231 251/236/232
f 250/239/233 264/248/231 249/240/218
f 251/236/232 264/248/231 250/239/233
f 249/240/218 264/248/231 329/249/234
f 329/249/234 263/250/235 262/251/236
f 248/225/206 262/251/236 261/242/222
f 266/252/237 271/253/238 270/254/239
f 266/252/237 270/254/239 311/255/240
f 270/254/241 279/256/242 269/257/243
f 271/253/244 276/258/245 275/259/246
f 278/260/247 283/261/248 269/262/243
f 269/262/243 283/261/248 277/263/249
f 273/264/250 282/265/251 281/266/252
f 272/267/253 281/266/252 276/258/245
f 285/268/254 289/269/255 288/270/256
f 284/271/257 288/270/256 293/272/258
f 284/271/257 287/273/259 313/274/260
f 286/275/261 291/276/262 290/277/263
f 286/275/261 290/277/263 285/268/254
f 292/278/264 294/279/265 291/276/262
f 289/269/255 294/279/265 288/270/256
f 288/270/256 294/279/265 293/272/258
f 301/280/266 298/281/267 299/282/268
f 305/283/269 3/284/270 295/285/271
f 296/286/272 6/287/273 297/288/274
f 11/289/275 301/290/266 300/291/276
f 12/292/277 302/293/278 301/290/266
f 13/294/279 303/295/280 302/293/278
f 303/295/280 14/296/281 304/297/282
f 304/297/282 15/298/283 305/299/269
f 323/300/284 28/301/7 16/302/285
f 30/19/19 18/303/286 17/304/287
f 20/305/288 34/306/289 21/307/290
f 21/307/290 35/14/14 22/308/291
f 40/10/10 26/309/292 25/310/293
f 41/8/8 27/311/294 26/309/292
f 42/5/5 323/312/284 27/311/294
f 46/67/295 88/86/73 47/65/296
f 48/66/297 89/85/72 49/64/298
f 50/60/299 90/83/70 51/61/300
f 51/61/300 90/83/70 52/59/301
f 91/80/67 54/54/302 53/57/303
f 54/54/302 91/80/67 55/53/304
f 92/79/66 57/52/305 56/51/306
f 93/77/64 59/47/307 58/49/308
f 93/77/64 60/48/309 59/47/307
f 94/75/62 62/44/310 61/45/311
f 94/75/62 63/42/312 62/44/310
f 94/75/62 64/43/313 63/42/312
f 95/74/61 66/37/314 65/41/315
f 95/74/61 67/38/316 66/37/314
f 96/72/59 69/34/317 68/35/318
f 96/72/59 70/33/319 69/34/317
f 96/72/59 71/32/320 70/33/319
f 97/68/55 73/31/321 72/30/322
f 73/31/321 97/68/55 74/27/323
f 75/28/324 98/70/57 76/26/325
f 88/313/73 46/23/295 77/22/326
f 109/314/327 101/116/102 413/95/82
f 105/122/108 112/315/328 111/316/329
f 106/124/110 114/90/77 113/317/330
f 107/126/112 115/89/76 114/90/77
f 148/318/331 306/319/332 141/320/333
f 150/321/334 144/322/335 143/323/336
f 144/322/335 151/324/337 145/325/338
f 152/326/339 146/327/340 145/325/338
f 154/328/341 148/329/331 147/330/342
f 157/173/343 188/331/344 158/171/345
f 188/331/344 159/172/346 158/171/345
f 159/172/346 188/331/344 160/169/347
f 160/169/347 188/331/344 161/168/348
f 189/332/349 163/165/350 162/167/351
f 163/165/350 189/332/349 164/166/352
f 165/162/353 190/333/354 166/163/355
f 190/333/354 167/161/356 166/163/355
f 190/333/354 168/159/357 167/161/356
f 191/334/358 170/156/359 169/155/360
f 191/334/358 171/153/361 170/156/359
f 191/334/358 172/151/362 171/153/361
f 192/335/363 174/149/364 173/152/365
f 192/335/363 175/148/366 174/149/364
f 193/336/367 177/145/368 176/147/369
f 193/336/367 178/146/370 177/145/368
f 193/336/367 179/144/371 178/146/370
f 194/337/372 181/139/373 180/141/374
f 181/139/373 194/337/372 182/140/375
f 182/140/375 194/337/372 183/136/376
f 183/136/376 194/337/372 184/137/377
f 185/134/378 195/338/379 186/132/380
f 195/338/379 187/133/381 186/132/380
f 187/133/381 195/338/379 156/131/382
f 307/339/159 188/331/344 195/340/379
f 196/186/168 189/332/349 188/331/344
f 197/185/167 190/333/354 189/332/349
f 190/333/354 198/184/166 191/334/358
f 192/335/363 200/181/163 193/336/367
f 201/178/160 194/337/372 193/336/367
f 202/175/157 195/338/379 194/337/372
f 239/223/204 240/222/203 308/341/383
f 242/220/201 257/219/200 309/342/384
f 242/220/201 309/342/384 310/343/385
f 242/220/201 310/343/385 241/217/198
f 241/217/198 258/344/386 255/345/387
f 264/248/231 267/346/388 312/347/389
f 265/246/228 268/348/390 259/247/229
f 260/243/225 311/255/240 268/349/390
f 261/242/222 266/252/237 311/255/240
f 262/251/236 266/252/237 261/242/222
f 263/250/235 312/347/389 262/251/236
f 283/261/248 286/275/261 282/265/391
f 275/259/246 284/271/257 280/350/392
f 16/302/285 4/351/393 3/284/270
f 17/304/287 5/352/394 4/351/393
f 18/303/286 6/287/273 5/352/394
f 6/287/273 19/353/395 7/354/396
f 7/354/396 20/305/288 8/355/397
f 8/355/397 21/307/290 9/356/398
f 9/356/398 22/308/291 10/357/399
f 27/311/294 15/298/283 14/296/281
f 323/312/284 3/358/270 15/298/283
f 258/344/386 335/238/217 329/249/234
f 310/343/385 333/234/213 327/241/219
f 258/344/386 328/239/220 335/238/217
f 309/342/384 254/235/214 310/343/385
f 310/343/385 327/241/219 334/236/216
f 257/219/200 326/245/227 309/342/384
f 256/359/400 332/230/209 326/244/227
f 308/341/383 330/224/205 324/233/211
f 256/359/400 325/231/212 332/230/209
f 240/222/203 248/225/206 308/341/383
f 308/341/383 324/233/211 331/227/208
f 255/345/387 329/249/234 240/222/203
f 143/323/336 118/107/93 117/108/94
f 119/106/92 145/325/338 120/103/89
f 146/327/340 121/104/90 120/103/89
f 146/327/340 122/99/85 121/104/90
f 122/99/85 147/330/342 123/360/401
f 148/329/331 124/361/402 123/360/401
f 416/92/79 113/317/330 114/90/77
f 112/315/328 416/92/79 415/93/80
f 111/316/329 415/93/80 414/94/81
f 110/362/403 414/94/81 413/95/82
f 40/10/10 85/363/404 86/11/11
f 109/314/327 412/96/83 411/364/405
f 336/3/3 2/4/4 214/204/185
f 336/3/3 214/204/185 206/182/164
f 204/187/169 203/365/406 217/193/174
f 204/187/169 217/193/174 216/188/170
f 205/1/1 204/187/169 216/188/170
f 87/6/6 43/366/407 28/7/7
f 45/9/9 87/6/6 42/5/5
f 86/11/11 45/9/9 41/8/8
f 85/363/404 38/367/408 84/368/409
f 84/368/409 37/369/410 44/370/411
f 44/370/411 36/13/13 83/12/12
f 35/14/14 82/371/412 83/12/12
f 82/371/412 33/372/413 81/373/414
f 32/17/17 81/373/414 33/372/413
f 29/21/21 43/374/407 78/20/20
f 31/15/15 79/18/18 80/16/16
f 30/19/19 78/20/20 79/18/18
f 99/88/75 98/70/57 377/69/56
f 409/22/22 77/22/23 46/23/23
f 408/24/25 76/26/23 77/22/23
f 407/25/26 75/28/23 76/26/23
f 406/27/27 74/27/23 75/28/23
f 405/29/28 73/31/23 74/27/23
f 404/30/29 72/30/23 73/31/23
f 403/32/30 71/32/23 72/30/23
f 402/33/31 70/33/23 71/32/23
f 401/34/32 69/34/23 70/33/23
f 400/35/33 68/35/23 69/34/23
f 399/36/34 67/38/23 68/35/23
f 398/37/35 66/37/23 67/38/23
f 397/39/36 65/41/23 66/37/23
f 396/40/37 64/43/23 65/41/23
f 395/42/38 63/42/23 64/43/23
f 394/44/39 62/44/23 63/42/23
f 393/45/40 61/45/23 62/44/23
f 392/46/41 60/48/23 61/45/23
f 391/47/42 59/47/23 60/48/23
f 390/49/43 58/49/23 59/47/23
f 389/50/44 57/52/23 58/49/23
f 388/51/45 56/51/23 57/52/23
f 387/53/46 55/53/23 56/51/23
f 386/54/47 54/54/23 55/53/23
f 385/55/48 53/57/23 54/54/23
f 384/56/49 52/59/23 53/57/23
f 383/58/50 51/61/23 52/59/23
f 382/60/51 50/60/23 51/61/23
f 381/62/52 49/64/23 50/60/23
f 380/63/53 48/66/23 49/64/23
f 379/65/54 47/65/23 48/66/23
f 378/67/24 46/67/23 47/65/23
f 95/74/61 375/91/78 96/72/59
f 376/71/58 377/69/56 97/68/55
f 96/72/59 375/91/78 376/71/58
f 369/84/71 412/96/83 370/82/69
f 373/76/63 374/73/60 94/75/62
f 372/78/65 373/76/63 93/77/64
f 371/81/68 372/78/65 92/79/66
f 91/80/67 370/82/69 371/81/68
f 90/83/70 369/84/71 370/82/69
f 88/86/73 99/97/75 369/84/71
f 417/87/74 410/375/84 99/88/75
f 377/69/56 115/89/76 417/87/74
f 114/90/77 115/89/76 376/71/58
f 416/92/79 114/90/77 375/91/78
f 374/73/60 415/93/80 416/92/79
f 414/94/81 415/93/80 373/76/63
f 413/95/82 414/94/81 372/78/65
f 412/96/83 413/95/82 371/81/68
f 140/376/99 123/360/401 124/361/402
f 410/98/84 411/364/405 369/84/71
f 100/114/100 132/127/415 125/115/101
f 122/99/85 123/360/401 139/100/86
f 138/101/87 121/104/90 122/99/85
f 137/102/88 119/106/92 120/103/89
f 135/109/95 117/108/94 118/107/93
f 116/112/98 117/108/94 133/111/97
f 124/377/402 116/112/98 140/113/99
f 102/117/103 126/128/416 127/118/104
f 125/115/101 126/128/416 101/116/102
f 129/123/109 104/121/107 128/120/106
f 127/118/104 128/120/106 103/119/105
f 108/378/417 131/129/418 132/379/415
f 106/124/110 129/123/109 130/125/111
f 130/125/111 131/129/418 107/126/112
f 134/110/419 125/115/115 133/111/420
f 125/115/115 140/113/114 133/111/420
f 140/376/114 131/129/124 139/100/123
f 134/110/419 135/109/95 126/128/116
f 135/109/95 118/107/93 127/118/117
f 118/107/93 136/105/118 127/118/117
f 136/105/118 137/102/120 128/120/119
f 137/102/120 121/104/90 129/123/121
f 129/123/121 121/104/90 138/101/87
f 130/125/122 138/101/87 139/100/123
f 196/186/168 203/365/406 204/187/169
f 367/130/125 187/133/23 156/131/23
f 366/132/127 186/132/23 187/133/23
f 365/134/128 185/134/23 186/132/23
f 364/135/129 184/137/23 185/134/23
f 363/136/130 183/136/23 184/137/23
f 362/138/131 182/140/23 183/136/23
f 361/139/132 181/139/23 182/140/23
f 360/141/133 180/141/23 181/139/23
f 359/142/134 179/144/23 180/141/23
f 358/143/135 178/146/23 179/144/23
f 357/145/136 177/145/23 178/146/23
f 356/147/137 176/147/23 177/145/23
f 355/148/138 175/148/23 176/147/23
f 354/149/139 174/149/23 175/148/23
f 353/150/140 173/152/23 174/149/23
f 352/151/141 172/151/23 173/152/23
f 351/153/142 171/153/23 172/151/23
f 350/154/143 170/156/23 171/153/23
f 349/155/144 169/155/23 170/156/23
f 348/157/145 168/159/23 169/155/23
f 347/158/146 167/161/23 168/159/23
f 346/160/147 166/163/23 167/161/23
f 345/162/148 165/162/23 166/163/23
f 344/164/149 164/166/23 165/162/23
f 343/165/150 163/165/23 164/166/23
f 342/167/151 162/167/23 163/165/23
f 341/168/152 161/168/23 162/167/23
f 340/169/153 160/169/23 161/168/23
f 339/170/154 159/172/23 160/169/23
f 338/171/155 158/171/23 159/172/23
f 337/173/156 157/173/23 158/171/23
f 368/174/126 156/174/23 157/173/23
f 202/175/157 1/179/161 209/176/158
f 201/178/160 208/380/421 1/179/161
f 201/178/160 207/180/162 208/380/421
f 206/182/164 207/180/162 200/181/163
f 336/3/3 206/182/164 199/183/165
f 205/1/1 336/3/3 198/184/166
f 204/187/169 205/1/1 197/185/167
f 220/381/422 206/182/164 214/204/185
f 307/339/159 209/382/158 203/365/406
f 211/199/180 208/380/421 212/383/423
f 203/365/406 218/191/172 217/193/174
f 207/180/162 220/381/422 213/384/424
f 213/384/424 208/380/421 207/180/162
f 1/179/161 211/199/180 210/189/171
f 203/365/406 209/382/158 218/191/172
f 209/176/158 1/179/161 210/189/171
f 225/385/425 217/193/174 222/196/177
f 218/191/172 219/386/175 223/192/173
f 235/202/183 221/195/176 224/213/194
f 217/193/174 223/192/173 222/196/177
f 215/2/2 221/195/176 2/4/4
f 216/188/170 225/385/425 221/195/176
f 222/196/177 226/198/179 225/385/425
f 219/194/175 210/189/171 228/212/193
f 222/196/177 223/192/173 237/197/178
f 219/194/175 228/212/193 227/387/426
f 221/195/176 236/215/196 224/213/194
f 220/381/422 233/207/188 232/388/427
f 214/204/185 234/203/184 233/207/188
f 231/389/428 220/381/422 232/388/427
f 212/383/423 231/389/428 230/205/186
f 320/208/189 231/389/428 319/221/202
f 211/199/180 212/383/423 230/205/186
f 223/192/173 219/386/175 238/201/182
f 210/189/171 229/200/181 228/212/193
f 219/386/175 227/390/426 238/201/182
f 236/215/196 225/385/425 226/198/179
f 232/388/427 233/207/188 317/206/187
f 231/389/428 232/388/427 319/221/202
f 238/201/182 322/218/199 316/210/191
f 232/388/427 317/206/187 319/221/202
f 322/391/199 228/212/193 321/209/190
f 318/211/192 236/215/196 226/198/179
f 226/198/179 237/197/178 318/211/192
f 315/214/195 234/203/184 235/202/183
f 241/217/198 318/211/192 242/220/201
f 257/392/200 321/209/190 256/359/400
f 315/214/195 241/217/198 255/345/387
f 317/206/187 315/214/195 255/345/387
f 317/206/187 255/345/387 240/222/203
f 321/209/190 320/208/189 256/359/400
f 320/208/189 239/223/204 256/359/400
f 316/210/191 257/219/200 242/220/201
f 260/243/225 245/229/223 261/242/222
f 331/227/208 324/233/211 246/228/23
f 332/230/209 325/231/212 244/231/23
f 324/233/211 330/224/205 247/226/207
f 325/231/212 331/227/208 245/229/23
f 326/244/227 332/230/209 243/232/210
f 334/236/216 327/241/219 252/237/23
f 335/238/217 328/239/220 250/239/23
f 327/241/219 333/234/213 253/234/215
f 328/239/220 334/236/216 251/236/23
f 329/249/234 335/238/217 249/240/218
f 254/235/214 326/245/227 259/247/229
f 264/248/231 253/234/429 259/247/229
f 253/234/429 254/235/214 259/247/229
f 326/244/227 260/243/225 265/393/228
f 272/267/253 266/252/237 312/347/389
f 329/249/234 264/248/231 263/250/235
f 248/225/206 329/249/234 262/251/236
f 247/226/226 248/225/206 261/242/222
f 269/257/430 311/255/240 270/254/239
f 269/262/430 267/346/388 268/348/390
f 273/264/250 267/346/388 274/394/431
f 280/350/392 271/253/244 275/259/246
f 312/347/389 273/264/250 272/267/253
f 270/254/241 280/350/392 279/256/242
f 274/394/431 269/262/243 277/263/249
f 274/394/431 277/263/249 273/264/250
f 269/257/243 279/256/242 278/395/247
f 271/253/244 272/267/253 276/258/245
f 292/278/264 286/275/261 313/396/260
f 273/264/250 277/263/249 282/265/251
f 277/263/249 283/261/248 282/265/251
f 272/267/253 273/264/250 281/266/252
f 284/271/257 285/268/254 288/270/256
f 284/271/257 293/272/258 287/273/259
f 313/274/260 287/273/259 292/397/264
f 296/398/272 304/399/282 295/400/271
f 285/268/254 290/277/263 289/269/255
f 291/276/262 294/279/265 290/277/263
f 289/269/255 290/277/263 294/279/265
f 292/397/264 287/273/259 294/401/265
f 287/273/259 293/272/258 294/401/265
f 304/399/282 305/402/269 295/400/271
f 5/352/394 295/285/271 4/351/393
f 301/280/266 296/398/272 297/403/274
f 301/280/266 297/403/274 298/281/267
f 301/280/266 299/282/268 300/404/276
f 301/280/266 302/405/278 303/406/280
f 301/280/266 303/406/280 304/399/282
f 295/285/271 3/284/270 4/351/393
f 298/407/267 7/354/396 8/355/397
f 5/352/394 6/287/273 296/286/272
f 6/287/273 7/354/396 297/288/274
f 299/408/268 8/355/397 9/356/398
f 299/408/268 10/357/399 300/291/276
f 17/304/287 29/21/21 30/19/19
f 10/357/399 11/289/275 300/291/276
f 11/289/275 12/292/277 301/290/266
f 12/292/277 13/294/279 302/293/278
f 303/295/280 13/294/279 14/296/281
f 304/297/282 14/296/281 15/298/283
f 15/298/283 3/358/270 305/299/269
f 28/301/7 29/21/21 16/302/285
f 19/353/395 31/15/15 32/17/17
f 18/303/286 30/19/19 31/15/15
f 33/372/413 19/353/395 32/17/17
f 23/409/432 36/13/13 37/369/410
f 33/372/413 34/306/289 20/305/288
f 21/307/290 34/306/289 35/14/14
f 22/308/291 35/14/14 36/13/13
f 24/410/433 37/369/410 38/367/408
f 24/410/433 39/411/434 25/310/293
f 89/85/72 47/65/296 88/86/73
f 39/411/434 40/10/10 25/310/293
f 40/10/10 41/8/8 26/309/292
f 41/8/8 42/5/5 27/311/294
f 42/5/5 28/7/7 323/312/284
f 50/60/299 89/85/72 90/83/70
f 91/80/67 52/59/301 90/83/70
f 55/53/304 92/79/66 56/51/306
f 58/49/308 92/79/66 93/77/64
f 61/45/311 93/77/64 94/75/62
f 64/43/313 95/74/61 65/41/315
f 68/35/318 95/74/61 96/72/59
f 97/68/55 71/32/320 96/72/59
f 98/70/57 74/27/323 97/68/55
f 77/22/326 98/70/57 88/313/73
f 100/114/100 410/98/84 108/412/417
f 109/314/327 100/114/100 101/116/102
f 110/362/403 102/117/103 103/119/105
f 101/116/102 102/117/103 413/95/82
f 111/316/329 103/119/105 104/121/107
f 113/317/330 105/122/108 106/124/110
f 111/316/329 104/121/107 105/122/108
f 410/375/84 107/126/112 108/378/417
f 106/124/110 107/126/112 114/90/77
f 141/320/333 149/413/435 142/414/436
f 143/323/336 149/413/435 150/321/334
f 147/330/342 153/415/437 154/328/341
f 150/321/334 151/324/337 144/322/335
f 151/324/337 152/326/339 145/325/338
f 146/327/340 152/326/339 153/415/437
f 157/173/343 195/340/379 188/331/344
f 154/328/341 155/416/438 148/329/331
f 155/416/438 306/417/332 148/329/331
f 189/332/349 161/168/348 188/331/344
f 165/162/353 189/332/349 190/333/354
f 169/155/360 190/333/354 191/334/358
f 172/151/362 192/335/363 173/152/365
f 176/147/369 192/335/363 193/336/367
f 180/141/374 193/336/367 194/337/372
f 195/338/379 184/137/377 194/337/372
f 199/183/165 191/334/358 198/184/166
f 307/339/159 196/186/168 188/331/344
f 196/186/168 197/185/167 189/332/349
f 190/333/354 197/185/167 198/184/166
f 286/275/261 278/260/247 313/396/260
f 199/183/165 200/181/163 192/335/363
f 193/336/367 200/181/163 201/178/160
f 201/178/160 202/175/157 194/337/372
f 202/175/157 307/177/159 195/338/379
f 239/223/204 308/341/383 256/359/400
f 241/217/198 310/343/385 258/344/386
f 263/250/235 264/248/231 312/347/389
f 264/248/231 259/247/229 267/346/388
f 265/393/228 260/243/225 268/349/390
f 259/247/229 268/348/390 267/346/388
f 260/243/225 261/242/222 311/255/240
f 262/251/236 312/347/389 266/252/237
f 278/395/247 279/256/242 313/274/260
f 284/271/257 279/256/242 280/350/392
f 284/271/257 276/258/245 285/268/254
f 286/275/261 281/266/439 282/265/391
f 276/258/245 281/266/439 285/268/254
f 23/409/432 10/357/399 22/308/291
f 3/284/270 323/300/284 16/302/285
f 16/302/285 17/304/287 4/351/393
f 17/304/287 18/303/286 5/352/394
f 18/303/286 19/353/395 6/287/273
f 7/354/396 19/353/395 20/305/288
f 20/305/288 21/307/290 8/355/397
f 21/307/290 22/308/291 9/356/398
f 24/410/433 11/289/275 23/409/432
f 12/292/277 25/310/293 13/294/279
f 13/294/279 26/309/292 14/296/281
f 334/236/216 258/344/386 310/343/385
f 26/309/292 27/311/294 14/296/281
f 27/311/294 323/312/284 15/298/283
f 325/231/212 308/341/383 331/227/208
f 257/392/200 256/359/400 326/244/227
f 310/343/385 254/235/214 333/234/213
f 306/319/332 340/169/153 149/413/435
f 309/342/384 326/245/227 254/235/214
f 308/341/383 248/225/206 330/224/205
f 240/222/203 329/249/234 248/225/206
f 255/345/387 258/344/386 329/249/234
f 306/319/332 368/174/126 337/173/156
f 337/173/156 338/171/155 306/319/332
f 338/171/155 339/170/154 306/319/332
f 149/413/435 344/164/149 150/321/334
f 340/169/153 341/168/152 149/413/435
f 341/168/152 342/167/151 149/413/435
f 342/167/151 343/165/150 149/413/435
f 151/324/337 348/157/145 349/155/144
f 344/164/149 345/162/148 150/321/334
f 150/321/334 345/162/148 346/160/147
f 150/321/334 346/160/147 347/158/146
f 150/321/334 347/158/146 348/157/145
f 353/150/140 151/324/337 352/151/141
f 151/324/337 349/155/144 350/154/143
f 151/324/337 350/154/143 351/153/142
f 151/324/337 351/153/142 352/151/141
f 153/415/437 356/147/137 357/145/136
f 152/326/339 353/150/140 354/149/139
f 152/326/339 354/149/139 355/148/138
f 152/326/339 355/148/138 356/147/137
f 360/141/133 153/415/437 359/142/134
f 357/145/136 358/143/135 153/415/437
f 153/415/437 358/143/135 359/142/134
f 155/416/438 364/135/129 365/134/128
f 360/141/133 361/139/132 154/328/341
f 361/139/132 362/138/131 154/328/341
f 362/138/131 363/136/130 154/328/341
f 363/136/130 364/135/129 154/328/341
f 155/416/438 368/131/126 306/417/332
f 365/134/128 366/132/127 155/416/438
f 366/132/127 367/130/125 155/416/438
f 124/377/402 141/320/333 116/112/98
f 116/112/98 142/414/436 117/108/94
f 118/107/93 144/322/335 119/106/92
f 142/414/436 143/323/336 117/108/94
f 78/20/20 380/63/53 381/62/52
f 119/106/92 144/322/335 145/325/338
f 120/103/89 145/325/338 146/327/340
f 122/99/85 146/327/340 147/330/342
f 147/330/342 148/329/331 123/360/401
f 417/87/74 115/89/76 410/375/84
f 416/92/79 112/315/328 113/317/330
f 111/316/329 112/315/328 415/93/80
f 110/362/403 111/316/329 414/94/81
f 412/96/83 109/314/327 413/95/82
f 43/374/407 378/67/24 379/65/54
f 43/374/407 379/65/54 380/63/53
f 79/18/18 383/58/50 384/56/49
f 381/62/52 382/60/51 78/20/20
f 78/20/20 382/60/51 383/58/50
f 386/54/47 79/18/18 385/55/48
f 384/56/49 385/55/48 79/18/18
f 81/373/414 388/51/45 389/50/44
f 386/54/47 387/53/46 80/16/16
f 387/53/46 388/51/45 80/16/16
f 391/47/42 81/373/414 390/49/43
f 389/50/44 390/49/43 81/373/414
f 82/371/412 393/45/40 83/12/12
f 391/47/42 392/46/41 82/371/412
f 396/40/37 83/12/12 395/42/38
f 83/12/12 393/45/40 394/44/39
f 394/44/39 395/42/38 83/12/12
f 44/370/411 398/37/35 84/368/409
f 396/40/37 397/39/36 44/370/411
f 85/363/404 400/35/33 401/34/32
f 84/368/409 398/37/35 399/36/34
f 399/36/34 400/35/33 84/368/409
f 85/363/404 403/32/30 86/11/11
f 401/34/32 402/33/31 85/363/404
f 86/11/11 405/29/28 45/9/9
f 403/32/30 404/30/29 86/11/11
f 87/6/6 407/25/26 408/24/25
f 405/29/28 406/27/27 45/9/9
f 45/9/9 406/27/27 407/25/26
f 87/6/6 378/23/24 43/366/407
f 87/6/6 408/24/25 409/22/22
f 40/10/10 39/411/434 85/363/404
f 85/363/404 39/411/434 38/367/408
f 84/368/409 38/367/408 37/369/410
f 44/370/411 37/369/410 36/13/13
f 35/14/14 34/306/289 82/371/412
f 82/371/412 34/306/289 33/372/413
f 32/17/17 80/16/16 81/373/414
f 29/21/21 28/301/7 43/374/407
f 99/88/75 88/313/73 98/70/57
f 95/74/61 374/73/60 375/91/78
f 369/84/71 411/364/405 412/96/83
f 140/376/99 139/100/86 123/360/401
f 100/114/100 108/412/417 132/127/415
f 102/117/103 101/116/102 126/128/416
f 129/123/109 105/122/108 104/121/107
f 108/378/417 107/126/112 131/129/418
f 134/110/419 126/128/116 125/115/115
f 140/376/114 132/379/113 131/129/124
f 196/186/168 307/339/159 203/365/406
f 220/381/422 207/180/162 206/182/164
f 211/199/180 1/179/161 208/380/421
f 213/384/424 212/383/423 208/380/421
f 225/385/425 216/188/170 217/193/174
f 235/202/183 2/4/4 221/195/176
f 221/195/176 225/385/425 236/215/196
f 220/381/422 214/204/185 233/207/188
f 231/389/428 213/384/424 220/381/422
f 212/383/423 213/384/424 231/389/428
f 320/208/189 230/205/186 231/389/428
f 238/201/182 227/390/426 322/218/199
f 322/391/199 227/387/426 228/212/193
f 318/211/192 314/216/197 236/215/196
f 315/214/195 317/206/187 234/203/184
f 241/217/198 314/216/197 318/211/192
f 257/392/200 322/391/199 321/209/190
f 260/243/225 244/231/224 245/229/223
f 264/248/231 252/237/230 253/234/429
f 272/267/253 271/253/238 266/252/237
f 269/257/430 268/349/390 311/255/240
f 269/262/430 274/394/431 267/346/388
f 273/264/250 312/347/389 267/346/388
f 280/350/392 270/254/241 271/253/244
f 292/278/264 291/276/262 286/275/261
f 296/398/272 301/280/266 304/399/282
f 5/352/394 296/286/272 295/285/271
f 298/407/267 297/288/274 7/354/396
f 299/408/268 298/407/267 8/355/397
f 299/408/268 9/356/398 10/357/399
f 17/304/287 16/302/285 29/21/21
f 19/353/395 18/303/286 31/15/15
f 33/372/413 20/305/288 19/353/395
f 23/409/432 22/308/291 36/13/13
f 24/410/433 23/409/432 37/369/410
f 24/410/433 38/367/408 39/411/434
f 89/85/72 48/66/297 47/65/296
f 50/60/299 49/64/298 89/85/72
f 91/80/67 53/57/303 52/59/301
f 55/53/304 91/80/67 92/79/66
f 58/49/308 57/52/305 92/79/66
f 61/45/311 60/48/309 93/77/64
f 64/43/313 94/75/62 95/74/61
f 68/35/318 67/38/316 95/74/61
f 97/68/55 72/30/322 71/32/320
f 98/70/57 75/28/324 74/27/323
f 77/22/326 76/26/325 98/70/57
f 100/114/100 411/364/405 410/98/84
f 109/314/327 411/364/405 100/114/100
f 110/362/403 413/95/82 102/117/103
f 111/316/329 110/362/403 103/119/105
f 113/317/330 112/315/328 105/122/108
f 410/375/84 115/89/76 107/126/112
f 141/320/333 306/319/332 149/413/435
f 143/323/336 142/414/436 149/413/435
f 147/330/342 146/327/340 153/415/437
f 157/173/343 156/174/382 195/340/379
f 189/332/349 162/167/351 161/168/348
f 165/162/353 164/166/352 189/332/349
f 169/155/360 168/159/357 190/333/354
f 172/151/362 191/334/358 192/335/363
f 176/147/369 175/148/366 192/335/363
f 180/141/374 179/144/371 193/336/367
f 195/338/379 185/134/378 184/137/377
f 199/183/165 192/335/363 191/334/358
f 286/275/261 283/261/248 278/260/247
f 284/271/257 313/274/260 279/256/242
f 284/271/257 275/259/246 276/258/245
f 286/275/261 285/268/254 281/266/439
f 23/409/432 11/289/275 10/357/399
f 24/410/433 12/292/277 11/289/275
f 12/292/277 24/410/433 25/310/293
f 13/294/279 25/310/293 26/309/292
f 334/236/216 328/239/220 258/344/386
f 325/231/212 256/359/400 308/341/383
f 306/319/332 339/170/154 340/169/153
f 149/413/435 343/165/150 344/164/149
f 151/324/337 150/321/334 348/157/145
f 353/150/140 152/326/339 151/324/337
f 153/415/437 152/326/339 356/147/137
f 360/141/133 154/328/341 153/415/437
f 155/416/438 154/328/341 364/135/129
f 155/416/438 367/130/125 368/131/126
f 124/377/402 148/318/331 141/320/333
f 116/112/98 141/320/333 142/414/436
f 118/107/93 143/323/336 144/322/335
f 78/20/20 43/374/407 380/63/53
f 79/18/18 78/20/20 383/58/50
f 386/54/47 80/16/16 79/18/18
f 81/373/414 80/16/16 388/51/45
f 391/47/42 82/371/412 81/373/414
f 82/371/412 392/46/41 393/45/40
f 396/40/37 44/370/411 83/12/12
f 44/370/411 397/39/36 398/37/35
f 85/363/404 84/368/409 400/35/33
f 85/363/404 402/33/31 403/32/30
f 86/11/11 404/30/29 405/29/28
f 87/6/6 45/9/9 407/25/26
f 87/6/6 409/22/22 378/23/24
